<?xml version="1.0" encoding="UTF-8"?><svg id="calendario" xmlns="http://www.w3.org/2000/svg" viewBox="0 0 1842.52 1188.77"><defs><style>.cls-1{fill:#fff;}</style></defs><g id="logo_gris"><g><path class="cls-1" d="m1128.59,895.72c-.51-.75-1.05-1.45-1.7-2.01-.34-.29-3.07,1.49-2.98,1.81.46,1.76,1.47,3.36,2.32,5.08.86-.58,1.55-1.05,2.17-1.46.62-.42,1.15-.78,1.68-1.14h0c-.51-.74-.98-1.53-1.49-2.28Z"/><path class="cls-1" d="m1150.72,878.76c-.18-.21-.37-.37-.59-.45-.92-.31-2.24.68-3.39,1.1.89,1.34,1.78,2.68,2.67,4.02.91-.7,1.81-1.4,2.72-2.1,0,0,0,0,0,0,0,0,0,0,0,0-.49-.79-.87-1.92-1.41-2.56Z"/><path class="cls-1" d="m1084.39,712.23c.89-.62,1.77-1.24,2.66-1.86-1.28-.37-2.55-.87-3.85-1.05-.55-.07-1.19.55-1.78.85.99.69,1.98,1.37,2.97,2.06,0,0,0,0,0,0h0Z"/><path class="cls-1" d="m1686.93,218.47c-12.86,8.56-26.47,15.92-38.05,25.89-8.62,7.41-17.29,14.44-26.55,20.92-11.99,8.38-25.51,15.06-32.21,30.03-1.35,3.01-4.88,5.16-7.75,7.16-12.25,8.5-19.43,20.82-23.44,35.17-2.9,10.39-4.65,21.13-7.13,32.73-1.78.66-4.28,2.12-6.9,2.45-15.73,1.95-22.77,12.07-24.68,27.72-.68,5.61-2.47,11.06-3.7,16.34-8.51,1.79-15.75,3.31-22.58,4.75-3.97,9.64-3.22,18.49-3.26,27.18-.05,10.08-3.11,18.46-10.44,25.25-4.14,3.83-8.03,8.11-11.32,12.76-3.79,5.34-2.9,11.65,2.01,15.59,3.83,3.07,8.39,5.13,12.35,8.04,6.82,5,13.78,9.88,20.04,15.59,8.91,8.13,13.86,17.92,10.17,31.12-3.16,11.29-.38,23.25,6.05,31.21,6.93,8.58,8.49,17.73,10.41,27.52,2.96,15.15-1.41,28.94-7.79,42.06-2.13,4.39-6.07,8.28-12.01,5.62-3.5-6.14-6.73-12.49-10.59-18.38-2.97-4.53-4.23-9.08-3.11-14.42.75-3.57,1.62-7.13,2.12-10.74,3.18-23.08-14.54-41.5-36.67-37.63-2.5.44-4.51,3.94-6.7,6.34-10.53,3.31-15.49,11.32-16.73,22.39-.8,7.14-1.55,14.29-2.32,21.49-4.56,1.96-8.25,4.48-12.2,5.08-12.77,1.95-19.2,10.59-22.78,22.48-1.67,5.53-3.04,11.19-4.12,16.89-3.56,18.89-18.6,27.81-35.36,20.3-15.72-7.04-22.07-21.53-23.99-37.99-1.16-9.99,0-20.35.75-30.49.24-3.17,2.54-6.17,4.37-10.32,6.06,2.32,11.06,4.65,16.28,6.11,5.92,1.65,12,3.24,18.06,3.53,10.12.48,17.03-4.96,20.52-15.05,2.13-6.16,4.31-12.31,6.35-18.5,1.75-5.31,5.24-8.92,10.38-9.52,12.05-1.41,22.22-7.03,32.51-13.38,14.58-8.99,15.84-11.11,8.6-26.48-2.45-5.2-4.22-11.59-8.19-14.97-9.74-8.28-12.95-20.36-19.3-30.97,2.72-8.74,8.86-15.79,5.77-26.77-3.07-10.91-8.63-15.56-18.1-17.09,1.04,7.13-6.04,11.22-6.6,16.57-1.35,12.87-10.06,16.2-18.81,20.31-3.12,1.46-6.87,1.78-9.6,3.76-7.07,5.1-14.6,10.15-15.77,20.64,6.9,3.01,12.7,4.85,17.98-.92,3.05-3.34,5.61-3.01,8.45.45,3.03,3.7,6.2.89,9.29-.31,5.7-2.21,10.9-.73,15.54,2.9,4.93,3.87,9.64,8.07,14.44,12.13,0,0,.58-.36.52-.34-2.77,12.02-2.51,24.9-7.98,35.95-17.19,4.2-32.66,2.36-47.47-6.5,2.08-2.63,3.79-4.79,5.4-6.81-.83-3.29-6.98-3.92-3.86-8.23,1.29-1.78,4.85-2.74,7.22-2.48,8.45.93,14.8,5.93,19.99,12.71-.31.21-.64.39-.95.6.45-.03.9-.07,1.35-.09,0,.01.02.02.03.03,0,0-.02-.03-.02-.03h0s-.38-.52-.38-.52c3.56-4.06,7.13-8.12,11.82-13.46-5.04-2.79-8.32-5.45-11.99-6.41-3.88-1.01-9.55,1.37-12.01-.79-12.57-11.08-26.73-4.2-40.1-4.96-4.07-.23-8.11,2.39-6.93,9.05,4.19,1.55,9.03,2.56,13.03,5.06,3.97,2.48,5.58,6.56-.09,11.09-2.7-.83-5.91-1.89-9.16-2.81-8.03-2.29-14.03.13-20.64,6.1-10.86,9.81-16.58,21-16.5,35.99.05,8.75-.72,17.52-1.41,26.26-.7,8.81-.39,17.1,2.82,25.74,3.52,9.46-.27,17.99-8.17,26.28-3.4-5.56-6-9.82-9.67-15.82-4.13,8.48-6.23,15.85-10.65,21.06-4.94,5.82-12.11,9.49-18.04,14.47-3.22,2.7-5.59,6.55-8.83,9.21-8.7,7.13-17.25,14.6-26.6,20.66-16.89,10.96-35.93,10.85-54.66,8.28-20.89-2.86-40.15-9.94-54.88-27.52-7.78-9.3-16.09-17.91-21.2-29.35-.65-1.45-4.65-1.91-6.93-1.57-.95.14-2.5,4-1.99,5.47,7.45,21.25,19.99,38.27,39.1,49.18,27.87,15.9,58.17,18.88,88.99,16.19,8.63-.76,17.41-4.96,25.22-9.35,9.11-5.12,17.11-12.39,25.85-18.31,3.88-2.63,8.39-4.22,12.29-6.13,6.37,5.42,12.52,9.27,16.94,14.7,8.85,10.86,20.41,17.23,31.73,24.31,5.04,3.16,9.97,4.72,15.72,4.36,5.54-.35,11.1-.53,16.66-.48,13.2.12,26.3.4,38.46-6.78,2.62-1.54,6.6-.52,9.71-.66,3.18,4.06,5.68,7.56,8.46,10.78,10.39,11.99,21.65,22.44,36.96,27.41,7.65,2.49,15.02,1.45,22.6,1.49,7.18.04,10.71,3.23,11.55,12.04.55,5.83,2.99,9.22,6.68,12.8,1.6,1.55,1.98,4.51,3.19,7.54-5.4,1.19-9.37,2.07-11.91,2.63-11.76,10.81-4.33,29.64-17.8,39.4-5.45-6.31-10.37-12.02-16.2-18.78,5.52-1.23,9.83-2.18,16.02-3.56-4.09-4.7-6.83-7.85-10.1-11.6,4.85-1.44,8.12-2.41,11.72-3.48.66-4.29.69-8.8,2.16-12.71,1.39-3.69,4.31-6.75,6.67-10.26-11.37-5.09-11.62-5.07-15.44,2.63-.93,1.88-1.18,4.19-2.31,5.9-.55.84-2.39.75-4.46,1.29-1.47-4.48-2.96-9.05-4.73-14.44-19.02-4.47-31.15-20.29-46.22-33.21-6.84,5.99-15.13-.02-21.55,2.11-7.54,2.51-16.26-1.69-24.37,4.85,5.1,3.07,8.81,5.31,15.6,9.4-9.35,1.02-15.27,2.12-21.19,2.15-4.03.02-8.07-1.5-12.12-2.23-5.46-.98-10.96-2.69-16.4-2.53-5.72.16-11.39,2.16-17.48,3.44-4.47-5.64-8.83-11.26-13.3-16.78-2.73-3.37-5.65-5.38-10.49-5.7-7.54-.49-10.65-6.08-8.35-13.15,1.21-3.7,3.48-7.02,6.19-12.3-6.55,0-10.95,0-15.99,0,1.75,5.96,4.12,10.47,4.09,14.97-.04,4.68-2.4,9.33-3.29,12.41,8.47,9.07,15.59,16.7,22.6,24.21,3.87-1.75,7.35-3.33,10.83-4.91,6.18,8.52,4.89,17.75,6.27,26.15.5,3.04-1.33,8.3-3.65,9.72-6.48,3.97-6.35,10.85-8.62,16.72-2.88,7.43-5.59,14.96-8.92,22.17-.84,1.81-3.79,2.54-6.93,4.47-1.09-14.03,3.93-24.7,6.2-35.9.11.12.35.4.35.4-.05-.53-.09-1.06-.14-1.59-.09.35-.18.7-.26,1.05-3.17-4.23-6.34-8.47-9.81-13.1,2.66-3.22,4.79-5.12,6.08-7.52,2.93-5.45.61-12.29-4.54-14.41-3.57-1.47-8.4.38-10.32,5.01-3.05,7.32-5.97,14.81-7.9,22.52-2.52,10.04-6.24,19.24-12.39,27.99-3.28.81-6.7,1.39-9.94,2.54-3.17,1.12-6.16,2.83-9.54,4.43,1.44,11.3,5.62,18.45,16.8,19.29,7.61.57,15.08,1.86,22.55-1.46,2.09-.93,5,.2,9.89.56-2.98,3.89-4.33,7.44-6.12,7.7-10.19,1.49-20.65,3.83-30.72,2.76-13.68-1.45-21.46-12.07-22.75-26.66-.39-4.36-.67-8.74-1.26-13.07-2.24-16.5.67-32.46,7.85-46.75,6.28-12.5,12.26-27,29.03-28.45.6-.05,1.08-1.79,1.64-2.8-3.92-1.26-7.64-2.46-11.04-3.55-.34-3.51-.57-5.95-1.01-10.49-8.31,10.35-16.31,18.45-22.1,28.04-6.21,10.28-10.34,21.95-15.45,33.18-3.49.81-7.21,1.67-12.84,2.98,3.87,6.11,6.67,10.52,9.38,14.81-4.82,5.08-8.94,9.42-14.63,15.42,3.04,1.93,4.74,3.8,6.65,4.1,9.18,1.4,12.34,8.75,14.53,16.47,2.82,9.96,7.81,18.29,13.29,26.86,4.13,6.47,10.2,9.63,14.65,15.01,1.11,1.34,1.69,4.35,1.01,5.82-.68,1.46-3.18,2.22-5.02,2.75-1.14.32-2.48-.15-3.75-.36-.78,3.33-1.56,6.66-2.41,10.29-2.12.35-4.13,1.05-6.1.95-18-.91-35.9-1.79-53.86-4.79-23.14-3.87-46.79-4.51-70.25-6.18-13.82-.98-27.69-1.31-41.54-1.84-6.92-.26-13.85-.16-20.76-.47-28.38-1.28-56.75-2.9-85.14-3.91-19.43-.69-38.89-.62-58.34-.78-39.59-.31-79.18-.59-118.77-.72-6.21-.02-12.46.54-18.61,1.47-1.43.22-3.75,3.33-3.48,4.58.53,2.46,2.16,5.53,4.15,6.52,2.23,1.11,5.37.02,8.1.17,8.35.46,16.13,2.5,23.42,9.2-2.14,3.76-3.27,7.44-5.66,9.36-1.74,1.4-5.37,1.18-7.8.43-3.96-1.22-7.48-4-11.45-5.16-5.28-1.54-11.26-4.04-16.14-2.77-11.43,2.99-22.65,3.39-34.17,1.98-.98-.12-2.17,1.59-4.65,3.53,0,7.52.23,16.18-.07,24.82-.27,7.99-.84,16-1.89,23.91-.28,2.09-2.86,3.84-6.54,8.46,0-24.63,0-45.49,0-66.8,9.13-4.82,17.59-8.78,28-6.29,3.59.86,7.93-1.34,11.8-2.58.81-.26,1.49-2.44,1.47-3.72-.01-1.29-.68-3.34-1.57-3.71-2.5-1.05-5.27-1.98-7.92-1.92-12.45.27-25,2.15-37.33,1.11-23.63-2-46.96-.52-70.44,2.01-31.05,3.34-62.23,5.17-93.33,8.09-17.93,1.68-35.79,4.22-52.77,6.26-2.72,4.67-4.77,8.18-8.43,14.45-9.4-13.18-21.24-13.56-33.05-10.71-36.67,8.85-74.88,5.54-111.33,15.96-8.5,2.43-15.34-1.25-19.36-9.03-3.94-7.64-6.85-15.9-9.86-24.03-.68-1.83.13-4.26.36-8.11,3.6-2.77,8.05-6.21,10.98-8.47.7-8.44.82-14.31,1.71-20.05,4.82-31.09-5.2-56.19-28.26-75.38-8-6.66-11.19-14.41-10.84-24.54.28-8.07,3.14-11.15,11.29-12.87,6.27-1.32,12.18-.58,18.43.99,10.08,2.54,20.31,4.2,30.94,2.46,10.85-1.78,19.95-5.64,26.18-15.7,3.77-6.09,8.11-11.79,12.31-17.82,4.61-1,9.93-.86,13.72-3.34,3.73-2.43,5.91-7.51,9.51-12.46,6.86,2.52,13.23,5.09,19.74,7.19,7.24,2.34,14.63,6.14,21.9,6,24.47-.49,48.62-3.36,68.56-21.05,4.11-3.65,9-6.32,14-9.77,22.31,15.7,48.02,15.55,72.18,21.08,17.31,3.96,34.21-1.19,50.03-10.01,8.68-4.84,17.39-9.27,22.9-18.27,3.91-6.38,8.69-11.38,17.19-12.87,4.11,2.39,8.9,5.26,13.77,7.97,18.55,10.3,37.94,18.31,58.84,21.01,25.17,3.25,49.13-5.67,73.6-9.44,2.63-.41,5.19-2.15,7.52-3.7,10.55-7,21.08-14.04,31.46-21.32,2.85-2,4.99-5.1,7.73-7.32,6.16-5.01,11.13-4.74,16.69.79,5.53,5.5,10.38,11.99,16.54,16.52,18.91,13.91,38.97,25.42,62.48,28.36,7.58.95,15.1,2.62,22.69,3.37,31.06,3.04,60.89.13,86.99-20.46,4.05-3.2,5.46-6.23,1.27-10.71-3.17,1.1-6.74,1.68-9.65,3.46-14.72,9-31.43,11.25-47.45,15.77-3.91,1.1-8.25,1.26-12.32.92-23.05-1.93-44.4-11.33-66.57-17.14-1.32-.35-2.65-1.02-3.75-1.86-17.34-13.3-35.53-25.68-44.64-47.63-1.2-2.9-4.26-4.94-6.99-7.98-2.23,2.75-3.89,4.21-4.86,6.07-13.46,25.88-34.55,40.84-61,49.15-16.8,5.28-33.93,8.14-51.17,9.43-28.43,2.13-55.35-3.67-78.83-21.96-6.13-4.78-11.63-10.47-17.82-15.16-3.14-2.38-7.17-3.48-9.25-4.45-7.12,8.16-13.67,14.53-18.92,21.92-12.08,17.02-29.21,23.69-47.88,27.98-8.02,1.84-15.88,4.5-22.86,6.51-6.91-2.09-13.3-5.14-19.88-5.69-6.57-.55-11.76-3-17.37-6.15-8.13-4.58-15.48-9.75-20.72-17.81-2.72-4.18-6.47-4.99-10.94-4.53-.89.09-1.94-1.46-2.92-2.26,1.65-7.06.83-12.87-6.48-15.49-7.41,4.98-6.74,12.27-6.26,19.54-3.39,2.44-7.49,4.23-10.03,7.4-12.16,15.21-28.96,19.76-46.29,22.16-17.09,2.37-33.11-1.75-46.67-13.7-6.38-5.63-8.59-11.34-6.01-14.7,3.73-4.86,8.71-3.65,13.41-2.5,6.08,1.49,12.05,3.53,18.1,5.15,12.62,3.39,24.74,2.92,35.99-5.05,2.83-2.01,6-4.58,9.14-4.8,10.09-.69,13.98-8.74,18.31-16.04,5.28-8.9,3.17-13.34-8.57-18.95-2.72,5.81-5.77,11.51-8.13,17.52-4.69,11.95-14.61,14.98-25.16,16.37-10.8,1.42-20.51-1.04-27.31-11.85,9.08-17.64,13.55-35.43,3.87-54.95-3.57-.42-9.38.7-11.24-1.65-6.4-8.1-18.05-11.65-19.11-24.56-.65-7.91-5.61-13.05-12.25-16.54-12.78-6.73-24.6-3.27-35.27,4.7-9.9,7.39-12.04,19.12-7.62,33.76,1.41,4.67,3.05,9.26,4.89,14.83-5.88,2.9-10.96,4.91-15.54,7.79-8.57,5.38-15.55,12.65-17.81,23.22-3.29,15.45,5.72,30.14,21.64,34.55,6.55,1.81,13.71,1.27,20.59,1.71,6.87.44,10.02,5.72,7.07,12-10.92,23.25-40.32,26.55-54.9,6.15-1.25-1.74-2.1-3.8-3.29-5.59-12.58-19.07-18.96-40.37-21.71-63.29-1.98-16.5-3.11-33.28-15.28-46.68-5.31-5.85-5.27-15.35-2.58-23.03,2.15-6.16,7.2-10.49,14.42-10.61,2.51,3.98,4.9,7.77,7.88,12.48,9.31-11.99,17.63-22.66,25.9-33.38,1.75-2.27,3.74-4.47,4.94-7.05,2.4-5.17,5.61-10.43,6.15-15.91.86-8.69,4.49-15.28,10.03-21.02,6.99-7.23,8.63-16.23,9.14-26,.65-12.27-3.23-23.64-9.23-33.07-5.01-7.87-6.84-15.54-7.72-24.31-1.65-16.5-7.77-31.11-18.66-43.08-4.64-5.1-10.46-9.02-14.94-12.79-.44-2.9-.97-4.37-.83-5.77,1.66-16.85-2.72-31.09-13.21-44.51-10.73-13.72-23.59-19.71-39.82-19.58-.69,0-1.38-.13-2.08-.18-7.06-.48-11.58-4.05-13.32-11.52-1.32-5.65-2.81-11.3-4.78-16.72-.59-1.62-3.02-3.32-4.71-3.45-1.73-.13-4.14,1.16-5.29,2.64-3.73,4.8-4.24,10.62-3.61,16.62,1.5,14.49,2.86,29,4.55,43.46.22,1.9,2.09,3.6,3.38,5.69,6.6-4.18,11.49-8.59,17.14-10.53,7.26-2.49,12.89,4.07,19.3,6.49,1.93.73,4.06,1.23,6.1,1.24,10.54.07,15.02,6.93,15.79,16.63.69,8.67.64,17.52-.2,26.16-.71,7.35-3.78,14.28-9.63,18.84-2.41,1.88-5.98,2.11-9.37,3.2-6.49-15.28.13-32.1-8.74-45.1-8.39-.5-16.54-1.08-24.69-1.45-13.43-.61-16.66-3.18-20.36-16.64-1.35-4.91-2.59-9.86-3.96-14.77-1.49-5.37-3.07-10.72-4.45-15.5-1.94-.34-2.75-.77-3.28-.52-1.87.88-3.79,1.8-5.44,3.05-11.09,8.42-15.21,18.08-12.17,33.76,4.27,22.05,4.64,44.98,6.19,67.56.75,10.92.05,21.94.63,32.88,1.2,22.51,2.81,44.99,4.3,67.48.29,4.37.22,8.9,1.33,13.05,5.03,18.85,9.61,37.91,15.89,56.3,8.9,26.08,19.17,51.63,28.81,77.43,4.06,10.88,7.65,21.98,12.09,32.68,4.2,10.13,7.73,20.23,8.34,31.47.27,4.87,2.61,9.63,4.12,14.4,6.14,19.39,13.54,38.45,18.21,58.22,6.69,28.3,11.88,57.03,16.84,85.74,6.95,40.25,13.31,80.62,19.47,121.01,1.49,9.81,5.92,15.4,14.57,19.2,39.15,17.21,78.68,33.12,120.78,40.36,25.99,4.47,51.65,10.6,78.13,12.71,26.19,2.09,52,9.2,78.19,11.78,42.17,4.16,84.49,6.82,126.79,9.35,36.04,2.16,72.12,4.23,108.2,4.6,66.68.68,133.38.26,200.07-.04,33.31-.15,66.64-.51,99.92-1.8,26.35-1.02,52.63-3.8,78.96-5.46,58.91-3.72,117.78-7.85,175.99-18.75,6.11-1.14,12.26-2.23,18.24-3.92,23.43-6.61,46.86-13.21,70.14-20.37,6.58-2.02,12.77-5.68,18.92-9.04,9.85-5.38,16.2-13.19,16.53-25.77.55-21.24,5.98-41.77,9.08-62.65,1.17-7.9,3.35-15.66,5.31-23.41,3.4-13.41,7.26-26.69,10.44-40.15,5.83-24.7,9.53-49.81,18.79-73.77,7.53-19.48,11.15-40.64,16.51-61.05,5.73-21.79,11.5-43.49,22.43-63.34,9.32-16.92,18.65-34,26.05-51.89,6.77-16.35,15.69-30.78,26.15-44.56,4.27-5.63,7.83-12.07,10.68-18.63,8.93-20.51,17.66-41.14,25.81-62,2.58-6.61,3.28-14.07,4.54-21.2,1.81-10.28-1.04-20.1-2.18-30.18-1.17-10.29,3.19-21.2,4.59-31.91.45-3.47-.83-7.18-1.28-10.79-.27-2.14-1.21-4.59-.58-6.4,7.45-21.17,3.92-43.49,6.47-65.15,1.53-13.02,3.94-25.65,8.57-38.18,4.72-12.76,6.35-26.88,8.49-40.54.98-6.23.87-13.1-5.34-18.86Zm-306.81,382.29c-.52.79-1.05,1.58-1.57,2.37-1.12-1.38-2.23-2.77-3.34-4.15,1.64.59,3.27,1.18,4.91,1.78Zm-33.45-33.12c6.13,3.72,6.03,8.22,2.57,12.95-2,2.74-4.67,4.94-7.29,7.65q8.58,4.26,19.79,1.38c0-3.26,0-6.76,0-10.26,0-2.72,0-5.45,0-9.3,7.86,6.91,9.3,10.48,12.21,28.43-16.24,15.87-22.27,15.47-38.42-1.93-1.42-1.53-3.47-2.38-4.95-3.85-.93-.92-1.35-2.42-2.59-4.76,3.67-8.9,9.73-15.97,18.67-20.3Zm44.64,159.35c0,2.73.43,4.33-.12,5.34-.6,1.12-2.03,2.22-3.24,2.42-31.4,5.21-60.77,1.42-85.55-21.97-2.6-2.45-5.13-5.09-2.22-11.15,4.05,1.08,7.3,1.94,10.56,2.8,0-1.41.5-3.11-.1-4.04-1.53-2.4-3.73-4.32-5.31-6.7-2.14-3.23-2.95-6.97.34-9.77,3.26-2.77,7.55-5.15,11.4-2.31,4.47,3.31,8.89,7.31,11.9,12.03,6.76,10.62,14.82,15.22,26.34,8.7,4.12,4.75,7.77,8.95,10.72,12.34,10.15,2.75,18.15-6.44,27.3-2.55-.29,13.32-12.75,5.4-17.44,12.46,5.56.86,10.66,1.65,15.42,2.38ZM252.7,512.04c-.62-1.19-2.29-2.9-2.18-4.47.24-3.44,4.9-6.21,7.59-4.76.95.52,1.87,2.18,1.89,3.34.1,4.02-2.86,6.58-7.31,5.89Zm-47.4-136.55c.94-3.58,2.41-6.78,6.62-6.37,3.65.36,7.68,5.34,6.93,8.9-.55,2.61-1.77,5.46-3.54,7.29-1.67,1.73-4.84,3.57-6.64,2.97-1.72-.57-2.72-4.13-3.65-6.53-.47-1.21-.08-2.78-.08-4.3.1-.58.18-1.28.36-1.96Zm-22.53,84.81c-7.06-.03-13.39-6.75-10.82-12.69,6.16-14.23,1.9-28.3,1.28-42.47-.7-16-1.47-32.01-1.71-48.03-.06-4.12,1.71-8.28,2.7-12.65,13.49-4.18,23.77-1.69,30.71,12.21-3.71,14.88-7.94,30.14-11.23,45.63-2.41,11.33-3.7,22.94-5.22,34.47-.37,2.82-.24,6.02.69,8.63.87,2.46,2.74,5.48,4.84,6.25,2.08.76,6.05-.1,7.33-1.8,2.87-3.84,4.88-8.51,6.7-13.08,1.49-3.76,2.19-7.86,3.97-14.6,3.03,4.41,5.56,6.42,5.6,8.49.1,4.27-1.45,8.55-1.73,12.86-.27,4.16.18,8.38.33,12.57-2.94,3.58-5.92,7.2-9.55,11.62-4.19-3.13-7.57-7-11.69-8.32-3.63-1.16-8.09.91-12.18.89Zm26.14,103.7c-8.26-5.34-9.45-10.88-9.31-16.37.05-1.85,3.33-4.2,5.58-5.11,1.03-.42,4.44,2.01,4.52,3.3.3,4.9-.33,9.87-.79,18.17Zm5.56,26.26c-.95-1.44-2.25-2.77-2.68-4.36-.2-.75,1.59-2.99,1.94-2.87,1.6.56,3.01,1.72,5.35,3.22-2.04,1.77-3.32,2.89-4.6,4Zm17.78-10.33c-1.21-2.18-3.16-4.26-3.45-6.56-.35-2.75,1.14-6.17,4.43-5.05,1.83.62,2.84,3.92,5.03,7.23-2.51,1.83-4.26,3.11-6.02,4.39Zm-2.97-31.05c.87-.38,1.74-.75,2.61-1.13,0,.6,0,1.2,0,1.83-.49.24-1.09.8-1.58.71-.41-.07-.69-.91-1.03-1.41Zm9.04-46.27c-1.46-.88-3.11-3.84-2.72-5.31,1.84-6.92,5.3-13.48,6.36-20.47,1.08-7.08,3.37-10.66,9.92-13.99,7.19-3.65,12.77-10.97,18.76-17.01,1.63-1.65,2.2-4.47,5.52-11.62-16.79,11.52-29.19,20.24-40.16,30.8-3.79,3.65-5.49,9.83-7.8,15.03-1.14,2.57-.82,6.09-2.38,8.17-1.45,1.93-4.73,3.72-6.82,3.32-2.01-.38-4.88-3.56-5-5.66-.33-5.75.49-11.59,1.04-17.38.39-4.16,1.04-8.3,1.59-12.45,7.31-3.1,7.9-11.34,11.59-17.05,3.49-5.39,5.91-11.46,11.6-14.09,8.42,3.25,0,9.17,3.86,14.27,6.86,1.45,10.91-6.59,17.09-8.04.71-10.94,1.4-21.59,2.18-33.7-3.74,0-7.95,0-12.11,0-1.21-8.08,2.96-12.33,6.42-16.6,10.63-13.14,21.57-11.46,28.98,4.32,1.52,3.24,3.33,6.82,3.38,10.27.23,16.93,8.08,30.66,15.98,44.41,5.71,9.92,4.22,19.5-.86,28.99-1.72,3.22-2.96,3.76-12.06,6.06-4.35-3.95-1.13-11.21-4.95-15.37-2.16.89-4.12,1.05-4.47,1.93-7.78,19.25-27.1,26.31-39.17,41.01-.9,1.1-4.29,1.07-5.78.18Zm5.59,23.76c-.39.26-1.1-.03-1.68-.08.37-.91.74-1.81,1.1-2.72.43.39.87.78,1.3,1.17-.23.57-.32,1.36-.73,1.63Zm119.16,88.29c7.1-5.17,15.15-9.45,24.64-5.78,5.03,1.94,8.62,10.86,12.93,16.73-7.71,24.77-14.47,29.01-50.45,30.63.46-5.12.3-8.74,1.21-12.03,1.15-4.14,3.54-7.9,4.73-12.03,1.76-6.1.92-13.13,6.94-17.52Zm-14.5-11.93c.38-1.59,2.15-3.55,3.63-3.88,1.08-.25,3.95,2.32,3.78,2.81-.71,2.14-2.24,3.98-4.36,7.34-1.7-3.29-3.35-5.04-3.05-6.26Zm-9.57,38.1c-3.85,8.08-9.03,14.27-18.57,15.01-8.83.68-13.21-2.9-13.16-11.51-.48-12.63,6.08-20.73,14.85-27.13,1.84-1.35,5.43-1.39,7.7-.53,10.93,4.14,14.34,13.33,9.17,24.16Zm5.58-44.98c-5.17,5.29-12.48,2.85-14.31-4.48-2.39-9.61.89-19.25,8.42-24.71,7.71-5.59,19.86-.97,21.63,8.89-.47,1.39-.63,4.53-1.88,5.12-6.68,3.15-9.11,10.31-13.87,15.18Zm-80.46,77.5c-.28.45-1.11.92-1.53.8-1.22-.37-2.73-.72-3.47-1.65-2.45-3.11-2.13-6.51.16-9.54.72-.96,2.21-1.28,3.35-1.9.56.21,1.33.24,1.63.66,2.79,3.89,2.23,7.81-.13,11.64Zm4.32,36.58c1.37-1.02,4.3-1.32,5.69-.44,5.31,3.37,10.27,7.34,15.37,11.08,4.73,3.47,9.75,5.17,15.63,3.61,4.68-1.24,9.64-1.43,14.21-2.96,12.22-4.11,22.58-10.99,28.13-23.86,3.42-7.93,6.42-16.06,9.95-23.93,1.69-3.77,8.27-4.29,10.86-1.28,10.98,12.79,9.6,29.39-3.35,39.84-4.38,3.54-9.12,6.65-13.17,10.56-7.31,7.06-15.76,11.7-25.12,14.78-8.57,2.82-17.11,5.72-25.67,8.58-4.71-1.8-9.2-3.68-13.78-5.24-11.79-4.02-16.76-14.38-20.97-25.26-.53-1.36.85-4.45,2.21-5.47Zm16.84,137.59c-.32.28-1.51.12-1.54-.01-.62-3.09-1.19-6.2-1.61-9.34-.05-.4.79-.93,1.97-2.24,1.33,1.47,1.92,1.88,2.17,2.45,1.41,3.24,2.13,6.47-.99,9.14Zm94.47,145.31c-.36-1.03-.82-2.03-1-3.09-.04-.21.95-.62,1.46-.94.39,1.07.77,2.13,1.16,3.2-.54.28-1.08.56-1.62.84Zm28.79-34.91c-.54.96-2.72,2-3.32,1.61-2.67-1.73-5.09-3.92-7.49-6.08-.37-.33-.37-1.42-.2-2.06,1.08-4.04,2.26-8.05,4-14.12,8.4,7.79,10.43,14.57,7.01,20.65Zm16,60.48c-1.39-.98-2.36-2.64-3.49-4.03,1.05-.58,2.1-1.17,3.77-2.1.92,1.47,1.86,2.98,2.81,4.5-1.06.59-2.62,1.96-3.1,1.62Zm9.09-78.41c1.34-.02,2.72,2.14,4.08,3.35-1.2,1.39-2.4,2.78-4.94,5.73-1.32-2.31-3.13-4.08-2.99-5.66.12-1.34,2.46-3.4,3.85-3.42Zm2.46,45.91c-1.04-1.46-2.42-2.8-2.94-4.45-.22-.69,1.62-3.02,2.11-2.88,1.64.45,3.1,1.66,5.56,3.14-2.12,1.88-3.42,3.04-4.72,4.19Zm.49-16.06c-4.42.21-6.24-3.34-6.08-6.9.13-2.97,2.28-5.84,4.35-10.63,3.66,3.79,6.64,5.72,7.93,8.51,1.76,3.79-1.99,8.82-6.21,9.02Zm22.28,18.31c-.99.25-2.25-.67-3.4-1.09.58-1.1.93-2.66,1.82-3.15.63-.35,1.98.72,3.02,1.15-.46,1.1-.75,2.92-1.43,3.09Zm28.64-45.94c.82.14,1.39,1.88,2.08,2.91-.79.94-1.58,1.88-2.37,2.81-1.09-1.44-2.17-2.87-3.26-4.31,1.19-.53,2.47-1.59,3.55-1.41Zm1.33,12.16c5.8,9.7-1.86,15.1-2.88,24.74-5.67-4.43-8.26-6.45-11.21-8.75,4.83-5.48,9.07-10.3,14.09-15.99Zm6.28,42.51c-.59,1.61-2.74,3.41-4.35,3.62-4.96.66-8.96-3.02-8.09-6.94.46-2.07,1.37-4.03,1.24-3.67,8.17-.02,12.48,3.51,11.2,6.99Zm35.48,17.26l.06-1.47,1.46.78-1.52.69Zm7.32-24.93c-1.02-.05-2.85-1.34-2.84-2.06.05-3.17.63-6.32,1.02-9.48,1.43-.02,2.86-.03,4.29-.05.16,3.23.51,6.47.34,9.68-.04.74-1.86,1.96-2.81,1.92Zm25.37,25.37c-3.79-11.39-3.6-11.4-.22-26.12q8.51,9.83.22,26.12Zm-2.44-57.73c.1-1.58,1.78-3.24,3.1-4.43.32-.29,2.87,1.03,2.94,1.77.25,2.62.11,5.36-.43,7.92-.17.81-2.05,1.21-4.12,2.32-.6-2.71-1.65-5.19-1.5-7.59Zm.47-18.99c-7.78-1.55-14.63-1.45-21.8,2.65-2.97,1.7-6.7-.52-7.58-6.38,10.54-6.49,22.67-8.15,34.7-9.73,2.14-.28,4.61,2.25,6.76,3.39-1.44,8.06-6.27,11.24-12.09,10.07Zm57.5,63.98c-.58,4.54-2.47,4.94-10.48,2.94,0-.69-.16-1.43.02-2.07,1.24-4.44,3.77-7.42,8.42-6.06,1.1.32,2.25,3.51,2.04,5.19Zm-2.44-13.98c-.52-1.12-1.74-2.61-1.42-3.29.72-1.51,2.2-2.62,3.38-3.9.49,1.18.98,2.37,1.79,4.33-1.16.88-2.46,1.86-3.75,2.85Zm3.28-40.45c-1.8-2.43-3.5-3.82-4-5.58-1.55-5.44-4.1-9.56-10.09-8.47-5.43.99-9.8,6.55-9.54,12.53.21,4.95,1.41,9.94,2.78,14.72.95,3.33,2.92,6.34,4.75,10.13-3.26,5.77-6.33,11.22-10.28,18.21-4.93-10.9-7.12-19.24-3.77-30.03,3.1-9.99,3.87-21.66-7.89-29.88,1.21-1.23,2.41-2.47,3.61-3.71,10.83-1.16,21.64-2.74,32.5-3.36,8.45-.49,10.36,1.96,14.78,15.82-3.92,2.94-8.16,6.11-12.85,9.63Zm24.53,51.8c-.54-.95-1.14-1.87-1.56-2.88-.05-.11,1.06-1.09,1.34-.97.93.41,1.73,1.16,2.57,1.77-.79.7-1.57,1.38-2.36,2.07Zm-.86-19.14c-.24-10.14-4.03-18.87-.6-28.8,8.43,1.76,6.92,8.8,7.71,13.77,1.12,7.02.3,7.93-7.12,15.02Zm25.66,30.06c-.49-.21-.98-.41-1.47-.62.6-.62,1.19-1.23,1.79-1.85.36.47.71.93,1.07,1.4-.46.36-.93.71-1.39,1.07Zm6.26-57.01c-1.71,5.29-5.24,8.45-11.59,4.88-.13-1.72-.84-3.9-.34-5.7,2.47-9,4.88-17.9.64-27.1-.08-.16,2.88-1.88,4.44-2.88,5.48,10.01,10.49,19.53,6.85,30.81Zm50.52,6.6c-4.62,4.17-9.96,5.26-12.55,2.55-.4-.42-.64-1.26-.6-1.87.32-4.52,6.51-8.32,13.12-7.63.33,1.59.82,3.39,1.03,5.22.06.54-.53,1.31-1,1.74Zm19.79,19.72c3.98-9.02,1.5-18.27,1.66-27.16,12.07-1.64,15.29.49,14.02,8.64-1.44,9.2-3.04,18.37-4.57,27.55-8.59-1.91-12.89-5-11.11-9.03Zm5.38,70.15c-.58-.2-1.15-.39-1.73-.59.15-.52.25-1.44.47-1.47.53-.08,1.26.1,1.62.48.19.21-.22,1.04-.35,1.59Zm.21-10.29c.1-1.06.21-2.12.31-3.18.3.57.6,1.14.89,1.71-.4.49-.8.98-1.2,1.47Zm10.2-19.26c-.75,2.3-3.2,5.24-5.15,5.49-1.75.23-5.17-2.52-5.61-4.5-1.36-6.12-2.64-12.71,4.4-19.45,3.88,6.47,8.69,11.33,6.36,18.46Zm692.79-161.42c.98.21,1.91.71,2.85,1.1-.59.9-1.19,1.79-1.78,2.67-.69-.82-1.45-1.6-2.02-2.51-.1-.16.7-1.32.95-1.27Zm-33.14,64.85c.45-1.37.81-2.45,1.17-3.53,4.7,2.24,11.63-3.82,16.89,6.73-8.07-1.43-13.04-2.32-18.06-3.21Zm9.98,21.52c-1.37,4.6-3.4,8.8-9.35,12.85,0-8.07,0-13.88,0-19.74,8.35.64,10.69,2.42,9.35,6.89Zm1.22-37.94c.6.11,1.29.06,1.76.38.3.2.27.94.38,1.44-.55.21-1.09.42-1.64.63-.17-.81-.33-1.63-.5-2.44Zm1.21-61.18c2.52,3.03,3.76,3.93,4.17,5.14.79,2.35,1.23,4.87,1.44,7.35.03.31-2.82,1.57-3.3,1.13-1.87-1.71-3.85-3.71-4.72-6.05-.5-1.36,1.04-3.55,2.41-7.57Zm.25,31.78c-1,.86-2.33,2.96-3.75,3.03-4.01.21-7.5-4.45-6.52-8.35.27-1.08,1.58-2.36,2.62-2.64,3.98-1.06,7.64,2.5,7.65,7.96Zm-126.1,12.1c15-28.58,20.27-58.58,12.9-90.67-.78-3.41-.77-7.02-1.23-11.57,6.99-2.84,13.11-4.79,20.35-2.88,8.59,2.26,17.46,5.11,26.14,4.88,10.48-.28,20.89,2.96,31.77-3.92,13.29-8.4,25.71-.07,28.51,16.53.96,5.67,1.57,11.67.86,17.32-.83,6.63-3.75,12.58-12.57,13.62-2.78-9.22,4.84-15.97,5.32-23.96q-5.61-10.26-14.74-12.49c-1.39,5.45-1.56,11.82-4.46,16.19-4.57,6.87-3.35,11.93.98,17.66.65.86.09,2.74.09,5.6-2.61-.24-5.35.23-7.36-.83-4.29-2.26-8.21-5.32-13.38-8.79-3.12,3.95-6,7.59-9.56,12.11-4.01-1.18-8.43-2.49-14.44-4.26-.53,6.1-.98,11.33-1.36,15.64-6.07,8.53-16.03-6.12-21.96,4.57,6.61,6.65,18.6,0,21.31,12.83-3.03,5.23-12.37,6.69-10.78,16.04.12.72-3.84,3.36-4.55,2.88-1.95-1.31-3.88-3.61-4.48-5.91-.45-1.72,1.78-4.08,1.68-6.09-.09-1.76-1.44-4.35-2.84-4.9-1.55-.62-4.73-.05-5.56,1.2-3.89,5.85-7.21,12.12-11.95,20.36,9.67,6.79,19.6,10.56,25.03,20.87,1.83,3.48,8.16,4.37,12.48,6.33,2.19,1,4.49,1.76,11.02,4.27-9.94,1.17-15.36,1.05-20.28,2.62-4.09,1.3-3.17,10.33-11.47,8.17-.45-8.1-.92-16.61-1.37-24.57-6.59-10.12-17.78-2.96-26.13-9.49.58-2.82.57-6.54,2.06-9.38Zm78.61-20.72c12.87.94,21.47,11.97,19.78,25.35-1.26,9.94-15.07,23.41-22.72,22.17-11.41-1.86-22.71-15.11-21.66-25.41,1.16-11.43,13.92-22.89,24.61-22.11Zm-10.46,64.67c1.21-2.95,1-6.55,1.4-9.79,7.74-.2,12.12,1.55,11.32,9.46-.21,2.08-.47,4.24-.17,6.28.41,2.84,4.57,4.48,6.5,2.59,1.45-1.42,2.73-3.19,3.61-5.06,1.84-3.92,4.71-5.24,8.31-3.52,3.91,1.87,7.27,5.04,6.07,10.01-.97,4.05-3.32,7.73-5.38,12.3-7.82,1.68-18.31-10.93-22.12,6.02-6.06-7.14-10.47-12.33-15.69-18.48,1.96-3.02,4.65-6.14,6.16-9.81Zm-53.29-21.66c.07.02-.23,1.24-.36,1.9-1.16.17-2.32.33-3.47.49.1-1.11.21-2.21.31-3.32,1.19.28,2.38.53,3.53.93Zm-41.21-2.21c2.39-1.13,4.7-2.9,7.2-3.3,13.97-2.23,15.85.46,11.77,16.97-3.3-2.31-6.28-4.89-9.65-6.62-2.91-1.5-6.26-2.05-9.41-3.03.03-1.34.06-2.68.09-4.02Zm-28.09,2.76c2.11.59,3.73,3.15,5.57,4.83-1.98,2.24-3.96,4.48-6.84,7.73-2.55-3.21-4.83-4.92-5.44-7.14-.83-3.01,3.16-6.41,6.71-5.42Zm-444.72,6.91c1.09.44,2.17.89,3.24,1.33-.59,1.01-1.02,2.63-1.82,2.86-.85.25-2.04-.82-3.09-1.31.55-.96,1.11-1.92,1.66-2.88Zm-19.78,34.75q13.57-1.21,21.8-6.93c7.14,12.79,7.21,17.9.03,31.67-8.86-6.47-12.55-23.17-28.74-13.65.1-9.79,3.22-10.76,6.9-11.09Zm-11.96,58.45c1.65.24,3.2,1.28,4.91,2.08-1.08,1.89-1.73,3.04-2.38,4.18-1.48-.97-3.11-1.79-4.32-3.05-.23-.24,1.3-3.28,1.79-3.21Zm3.28,23.97c.06-.05,1.12.77,1.08,1.08-.17,1.09-.62,2.13-.97,3.19-.82-.66-1.64-1.31-2.45-1.97.76-.79,1.51-1.6,2.34-2.3Zm18.01,20.16c-6.81,3.34-12.56,1.58-19.55-4.95,8.42-3.09,14.59-2.4,20.75.3.46.2,1.09,1.18.97,1.42-.58,1.17-1.17,2.74-2.17,3.23Zm6.72-18.54c-.32-.44-.37-1.09-.53-1.66.47-.14,1.25-.53,1.36-.38.32.44.37,1.09.52,1.66-.47.14-1.25.53-1.35.38Zm2.6-16.98c-4.21-5.69-7.79-10.52-12.2-16.48,3.15-2.94,5.82-5.42,9.34-8.7,4.2,6.43,7.56,11.58,11.54,17.66-2.79,2.42-5.15,4.47-8.68,7.52Zm22.12,34.18c-2.93.47-5.62-3.02-4.15-5.25.91-1.38,3.26-2.65,4.73-2.41,1.48.24,2.68,2.42,4.6,4.36-2.18,1.45-3.58,3.05-5.18,3.3Zm1.86-18.63c-.42.11-.84.23-1.26.34.31-.63.61-1.25.92-1.88.11.51.23,1.03.34,1.54Zm1.04-81.56c3.29,8.11,5.83,14.39,8.59,21.2-9.94-1.51-11.6-5.37-8.59-21.2Zm8.47,93.54c2-1.52,3.33-3.04,3.77-2.79,4.42,2.47,8.69,5.23,15.95,9.74-10.24.2-15.19-2.2-19.72-6.95Zm3.09-37.76c2.29-1.46,4.87-3.16,7.39-3.26,2.3-.08,5.13,1.29,6.88,2.98,2.13,2.05-.6,5.16-5.56,6.25-1.99.44-4.01.74-6.88,1.27-.89-.95-2.49-2.09-3.21-3.67-.37-.82.5-3,1.38-3.56Zm13.3-16.99c-.89.81-2.88,1.41-3.73.9-1.58-.94-3.89-2.86-3.79-4.2.68-9.1,2.33-18.14,2.85-27.24.5-8.71,5.63-12.05,12.28-14.21-1.3,13.27-2.5,26.55-4.05,39.78-.21,1.81-2.07,3.62-3.55,4.97Zm568.48,18.37c-.09.58-.91,1.45-1.43,1.48-15.34.98-27.34,13.31-43.44,13.05-12.28-.19-24.62,3.3-36.92,5.3-29.47,4.81-58.93,9.72-88.4,14.55-2.74.45-5.53.99-8.27.87-29.97-1.28-59.51,2.98-89.18,6.57-18.51,2.24-37.38,1.18-56.09,1.68-4.13.11-8.86-.71-12.27,1.09-7.06,3.72-13.62,1.76-20.28.06-12.15-3.1-14.77-7.65-14.74-21.96.02-12.97-.53-25.94-1-38.9-.05-1.23-1.39-2.4-2.96-4.94-1.75,2.27-4.38,4.1-4.47,6.05-.82,18.21-1.2,36.45-1.75,56.3-4.05,1.39-8.55,4.54-12.67,4.06-16.73-1.95-33.22,1.3-49.84,1.39-29.15.16-58.3.87-87.45,1.25-7.49.1-15.04.04-21.84-3.65.42-8.03,5.93-10.89,9.87-9.31,12.84,5.15,24.12-4.69,35.33-1.65,5.69-6.14,3.71-11.86,2.79-17.63-.82-5.16-.88-10.46,4.8-13,.96-.43,2.87.1,3.66.91,3.72,3.81,5.41,8.39,3.64,13.89-.89,2.75-2.22,5.45-2.53,8.27-.42,3.99,1.48,7.08,5.3,8.17,3.01.86,7.8-2.74,7.24-6.08-3.29-19.54,3.56-39.01.05-58.5-.13-.72,0-1.69-.41-2.12-1.38-1.48-3.07-4.02-4.41-3.86-2.43.28-6.31,1.77-6.72,3.51-1.3,5.49-1.14,11.35-1.9,17.01-.13.99-1.95,2.27-3.09,2.41-1.05.12-2.77-.82-3.28-1.81-.95-1.84-2.03-4.23-1.68-6.1,2.43-13.06-3.03-25.38-2.84-38.4-2.28,10.84-6.82,20.89-6.33,32.22.28,6.5,0,13.25-1.47,19.51-.56,2.38-5,4.77-7.95,5.24-3.61.57-8.26-5.55-7.33-9.01,1.31-4.86,3.62-9.43,4.88-14.3.45-1.73-.55-5.4-1.59-5.73-2.23-.71-5.76-.79-7.23.63-2.96,2.84-5.2,6.67-7.15,10.43-1.44,2.77-1.95,6.07-5.27,8.66,0-3.53-.47-7.14.1-10.56,1-5.95,1.28-11.31-2.68-16.53-1.45-1.92-1.75-5.74-1.12-8.3,2.31-9.45-3.85-12.4-9.67-15.76,2.62-2.19,5.45-4.15,7.86-6.58,3.3-3.33,4.21-7.5,2.08-11.96-2.22-4.66-6-5.37-10.56-4.76-1.71,6.31-3.28,12.12-4.72,17.41-6.06.5-7.27-2.93-8.5-6.43-2.78-7.91-7.76-11.69-16.1-9.86-5.12,1.12-9.27-1.01-14.08-6.15,3.25-1.85,5.3-3.96,7.47-4.11,33.24-2.27,66.34-3.9,99.83-1.48,24.74,1.78,49.57,4.81,74.64,3.88,22.83-.85,45.77,2.06,68.68,2.61,45.19,1.09,89.99,6.43,134.7,12.9,11.66,1.69,23.25,3.87,34.87,5.83,6.21,1.05,12.44,2.19,17.02-1.81,8.84,3.56,17.09,6.73,25.22,10.19,9.63,4.1,19.48-4.57,30.04,2.63,8.9,6.07,20.89,7.2,31.57,10.26,10.03,2.88,20.15,5.38,30.22,8.13,7.97,2.18,15.62,6.52,24.3,3.6,1.22-.41,3.09-.59,3.98.09,10.99,8.49,26.06,9.87,35.82,22.47-3.23,7.24-12.99,8.26-14.34,16.65Zm-548.29,16.46c.25-1.46,2.28-3.51,3.63-3.59,1.28-.08,2.68,2.05,5.36,4.36-2.96,1.76-4.83,2.87-6.7,3.98-.84-1.6-2.52-3.35-2.29-4.74Zm26.94-1.45c.61-.89,2.45-1.55,3.44-1.25,1.01.31,2.27,1.88,2.34,2.97.26,3.83-.98,6.9-5.16,7.63-3.26-2.92-2.77-6.22-.62-9.36Zm536.4-76.61c-.23.07-1.17-1.14-1.07-1.34.48-.93,1.22-1.72,1.87-2.55.7.82,1.4,1.63,2.09,2.45-.95.51-1.88,1.13-2.89,1.45Zm12.97,20.6c-.11.02-.41-1.01-.62-1.56.94-.32,1.87-.66,2.82-.86.07-.02.34,1.01.52,1.55-.9.32-1.8.69-2.73.87Zm4.58-15.51c-.6.15-1.4.13-1.93-.17-5.22-2.97-3.96-10.34,4.08-24.08,4.21,14.95,3.52,22.84-2.15,24.25Zm2.3-36.03c-.54-.03-.98-2.12-1.47-3.27,1.53-.62,3.04-1.41,4.63-1.71.27-.05.89,2.06,1.63,3.84-1.68.46-3.25,1.21-4.79,1.13Zm7.15-21.86c-.36.92-2.03,1.26-3.13,1.85-.58-1.08-1.15-2.16-1.72-3.23,1.3-.76,2.61-1.51,3.91-2.27.37,1.24,1.31,2.73.94,3.65Zm.49-13.97c-1.43.06-2.95-1.79-4.42-2.81,1.55-1.75,3.11-3.51,4.66-5.26,1.28,1.27,2.56,2.53,4.37,4.32-1.91,1.66-3.22,3.69-4.61,3.75Zm31.08-29.14c-.26,2.24-2.89,4.19-4.84,6.81-6.46-10.89-2.64-20.74-1.21-30.41.18-1.24,2.99-2.37,4.75-2.86.62-.17,2.56,1.72,2.54,2.64-.17,7.96-.34,15.94-1.24,23.83Zm-13.97-186.06c1.21.01,2.4,1.11,3.6,1.73-1,1.57-1.99,3.14-3.68,5.81-1.66-2.71-2.64-4.3-3.62-5.9,1.23-.59,2.47-1.65,3.7-1.64Zm-30.41-79.65c4,.49,8.33.18,11.9,1.75,7.4,3.25,9.21,10.11,5.49,17.81-.93,1.92-2.42,3.54-3.36,5.45-7.22,14.71-6.59,17.05,7.29,27.66.15,6.65-4.4,8.39-9.3,9.17-5.93.95-8.75-3.54-10.52-8.37-1.18-3.21-2.1-7.12-1.46-10.35.94-4.73,0-8.15-2.51-12-7.18-11.03-5.07-21.4,2.47-31.13Zm21.43,95.33c-2.87,5.23-6.47,9.24-13.26,8.6-.59-1.99-1.65-4-1.7-6.04-.12-4.33-.13-8.89,4.81-10.83,3.15-1.24,5.57.78,10.15,8.27Zm-3.24,52.44c-1.75,6.14-5.74,5.87-8.39,3.83-4.92-3.79-9.82-8.12-13.38-13.26-4.27-6.17-7.13-13.41-10.6-20.19,14.1,6.46,22.09,19.57,32.36,29.62Zm-59.77-63.36c-4.02.29-5.63-4.01-5.32-7.84.81-10.27,11.21-20.1,21.08-20.36,3.15-.08,6.62,3.85,6.01,7.39-.92,5.36-2.29,10.63-3.93,17.99,4.32-3.42,6.79-5.38,9.29-7.36,3.55,6.38,3.71,10.87.1,12.57-4.35,2.05-9,3.36-13.65,5.04-4.26-2.79-7.19-7.9-13.57-7.43Zm19.11,43.16c.18-.38,1.27-.7,1.67-.49,4.59,2.37,3.44,6.07,2.28,9.75-2.96-2.29-6.27-4.42-3.96-9.26Zm4.87,39.71c-.07-.92-.13-1.84-.2-2.76.55.19,1.27.22,1.61.61.29.33.17,1.08.22,1.65-.55.17-1.09.34-1.64.51Zm70.05,12.11c-23.09.18-44.97-4.22-63.29-20.81-6.4-5.8-7.72-12.95-7.41-20.98,7.06,1.53,11.96,6.34,15.36,12.64,4.58,8.49,11.78,11.69,20.34,12.83,13.53,1.81,27.05,3.62,40.61,5.44,2.44,6.25.16,10.83-5.61,10.88Zm7.61-69.78c-.75-1.4-1.77-2.74-2.07-4.25-.1-.47,1.75-1.37,2.71-2.08.55,1.1,1.11,2.2,1.66,3.29-.77,1.02-1.54,2.02-2.31,3.03Zm59.88-310.6c.97.43,1.8,1.23,2.68,1.89-.84.7-1.69,1.38-2.53,2.06-.58-1-1.18-1.98-1.66-3.03-.03-.06,1.17-1.07,1.5-.92Zm-29.92,9.04c4.19-2.72,9.27,1.15,13.3,10.29,1.87,4.24,5.47,9.09-1.5,13.86-4.58-2.85-9.55-5.93-14.52-9.01-1.06-5.44-3.21-11.28,2.71-15.13Zm-2.84,15.59c4.83,8.35,9.68,16.73,15.26,26.37,7.42-4.74,14.83-9.47,22.32-14.24,11.91,4.22,13.18,5.01,8.95,13.57-3.37,6.81,1.49,12.44-.31,18.12-5.2,2.72-5.74-1.61-7.87-4.3-2.44-3.09-5.88-3.12-8.81.92,3.04,4.98,6.11,10.03,10.48,17.19-4.95,0-7.98.96-9.92-.17-7.83-4.53-15.18-9.29-19.47-18.66-4.44-9.69-11-18.29-16.45-27.49-1.06-1.79-1.41-4.08-1.9-6.19-.8-3.43,1.78-5.1,7.72-5.12Zm47.45-28.55c4.51,3.29,9.04,6.21,13.08,9.72,1.94,1.68,3.87,4.4,4.15,6.86.26,2.26-1.13,5.92-2.85,6.89-1.47.83-5.47-.53-6.54-2.2-2.19-3.43-3.24-7.68-4.62-11.65-1.04-2.97-5.96-4.18-3.23-9.62Zm-76.21,126.24c-6.14-4.07-12.18-7.52-17.63-11.82-9.8-7.73-9.41-14.4,1.03-22.26,2.77-2.09,6.04-3.45,10.8-6.11,10.85,9.16,24.49,13.46,27.24,31.33-4.7.16-8.85-.72-12.09.7-3.49,1.53-6.13,5.22-9.35,8.16Zm11.93,60.76c.5-1.19,4.16-2.39,5.04-1.7,4.74,3.72,4.72,8.2.6,12.7-5.93-1.42-8.05-5.22-5.63-11Zm1.07,146.66c-2.06-1.34-5.08-2.66-4.95-3.32,2.22-11.73,1.86-24.68,12.24-33.14,1.33,1.25,3.09,2.24,2.99,2.92-1.7,11.49-5.05,22.43-10.27,33.54Zm9.85-242.47c-2.93-.75-5.21-.73-6.76-1.84-6.24-4.47-12.21-9.36-18.35-13.98-5.51-4.14-7.11-10.12-3.84-14.97,3.19-4.72,9.99-5.98,14.89-2.71,1.16.78,2.58,1.51,3.24,2.66,4.24,7.43,8.6,14.81,12.22,22.58.9,1.92-.81,5.19-1.4,8.25Zm11.04,123.26c-1.99-.67-3.14-1.06-4.29-1.45.57-1.71,1.13-3.43,1.7-5.14,1.14.45,3.17.76,3.26,1.38.24,1.61-.37,3.37-.67,5.2Zm12.39,32.16c-.6-1.1-1.33-2.15-1.71-3.33-.11-.34,1.05-1.55,1.14-1.5.99.62,1.88,1.4,2.8,2.14-.74.9-1.49,1.79-2.23,2.68Zm3.54-14c-1.03-.38-1.96-1.07-2.94-1.65.79-.73,1.56-1.46,2.34-2.18.63.86,1.33,1.67,1.81,2.61.08.15-.95,1.31-1.21,1.22Zm10.72-114.71c-6.64-1.36-13.44-2.2-19.86-4.32-2.88-.95-5.24-4.24-7.37-6.88-1.58-1.96.6-7.17,2.72-6.85,6.07.93,12.5,1.3,17.94,3.88,3.8,1.8,6.19,6.88,9.21,10.49-.88,1.23-1.77,2.45-2.65,3.68Zm22.27,60.94c-5.82-1.32-11.76-2.66-17.95-4.06,0-2.49-.81-5.44.14-6.35,3.44-3.28,7.16-6.69,11.38-8.48,3.62-1.54,8.06-.94,13.38-1.38q2.89,11.76-6.95,20.27Zm-1.26-46.58c4.67-8.16,4.63-18.61,11.03-27.17,1.74,3.8,3.07,5.7,2.74,6.1-5.41,6.63-3.69,17.95-13.77,21.07Zm7.75-166.15c-8.26-2.73-15.87-5.24-23.3-7.69q2.42-16.81,15.88-34.72c6.94-.53,13.05-1,18.82-1.43,3.19-5.07,5.93-10.13,9.35-14.63,2.6-3.42,8.78-1.3,10.03,3.07,1.98,6.95-.53,48.08-4.21,53.92-4.45,7.06-9.96,13.37-15.07,20.08-9.09-2.93-7.27-13.39-11.5-18.6Zm19.2,158.33c-1.95-2.33-2.88-3.06-2.77-3.37,3.76-10.56,7.63-21.08,11.71-32.23,2.8,1.43,5.91,2.29,5.91,3.13-.07,13.31-5.79,23.47-14.85,32.48Zm10.37-122.25c-1.74-1.49-2.78-3.86-4.09-5.9,1.77-.64,3.67-2.01,5.28-1.69,1.4.27,2.46,2.44,4.25,4.41-2.45,1.49-4.93,3.62-5.43,3.19Zm23.91-120.23c1.88,2.42,3.81,3.84,4.02,5.5.17,1.35-1.71,3-2.69,4.51-1.31-1.34-3.34-2.5-3.71-4.08-.32-1.39,1.22-3.26,2.37-5.93Zm-16.47,192.92c-3.44-7.18-1.69-11.1,5.2-13.27-1.55,3.94-3.09,7.88-5.2,13.27Zm8.97-25.95c-4.73-13.8-.4-19.45,8.03-24.79,3.83,10.44-2.31,15.38-8.03,24.79Zm6.3-81.73c-3.33.66-6.3-4.28-6-11.29,1.1-.95,2.81-3.53,4.97-4.05,4.26-1.03,7.92,3.24,7.45,7.9-.41,4.09-2.7,6.7-6.42,7.43Z"/><path class="cls-1" d="m627.53,572.15c9.48.33,18.22,6.52,21.34,15.24,3.27,9.13,8.68,18.64,6.15,29.5-.09.39,2.01,1.35,4.33,2.84,1.83-3.65,3.61-7.2,5.56-11.08-1.94-2.76-3.73-4.95-5.14-7.37-4.56-7.85-7.07-15.95-1.27-24.39,5.91-8.59,14.03-12.07,23.7-9.33,5.79,1.64,12.54,1.82,17.21,8.63-.65,4.35-1.47,9.32-2.12,14.32-1.06,8.21-3.89,14.66-10.71,20.1-5.76,4.59-10.86,11.29-11.06,21.63,14.11,9.33,28.41,19.23,43.36,28.27,10.01,6.05,20.56,9.9,31.5,10.24,26.3.83,52.55-.93,77.6-10.75,21.8-8.54,34.06-27.07,42.82-48.24,3.82-9.23,5.72-19.63,6.94-29.7,1.73-14.29-4.18-26.94-9.9-39.54-4.41-9.72-11.34-14.25-21.34-14.14-2.67.03-6.76,1.2-7.79-.17-6.17-8.18-14.11-3.63-21.34-4.32-4.38-.42-9.24,4.06-13.38-.86,2.36-4.28,4.51-8.18,6.66-12.07-9.59,1.66-19.19,3.32-29.21,5.05-.23-3.07-.99-5.34-.45-7.19,6.38-21.94,24.51-34.75,45.85-32.5,2.74.29,5.39,1.58,8.12,1.77,7.92.56,13.07-4,14.38-12.46,1.22-7.9-.6-15.46-1.16-22.78-11.64-1.22-21.95-2.16-32.23-3.4-24.5-2.97-41.84-17.91-56.05-37.77-5.04-7.04-4.23-13.69,2.27-19.18,4.51-3.8,9.53-6.93,15.29-11.05-11.01-6.22-22.72-8.48-27.63-19.73,7.74-29.06,16.11-27.99,38.22-19.63,8.5,3.21,16.55,7.31,25.93,6.93,6.58-.27,11.97,3.14,16.68,7.79,9.08,8.97,18.2,17.89,27.28,26.85,3.54,3.49,6.62,7.7,10.63,10.36,2.47,1.64,6.52,1.77,9.44.94,1.19-.34,2.3-5.31,1.67-7.64-1.71-6.27-4.62-12.16-6.57-18.37-1.03-3.29-2.44-7.61-1.26-10.3,5.01-11.44-.84-19.32-6.36-27.96-4.98-7.79-9.97-15.87-13.14-24.56-6.38-17.5-3.65-24.54,10.52-35.35,4.88-3.73,10.14-4.01,15.74-4.28,6.04-.29,12.76.5,16-6.97-.37-1.51-.26-3.44-1.1-4.16-13.85-11.96-12.55-28.26-11.41-44.35.47-6.63,7.54-9.09,12.38-4.24,2.23,2.24,5.08,7.45,4.17,8.9-4.69,7.47,1.22,11.59,3.68,16.56-1,5.65-10.8.71-9.14,9.51,12.3,5.16,25.05,5.27,37.31,1.39,2.69,2.33,4.7,4.07,6.65,5.76-.08.08-.16.16-.23.24.23.05.45.09.68.15,0,0,.02.01.02.02l-.41-.48c3.73-.15,7.46-.31,11.18-.46-2.07,7.16-2.41,12.94-1.62,22.65.1,1.17-.63,2.41-1.07,3.62-14.33,6.06-23.9-5.39-36.46-13.57,0,5.27-.85,8.41.19,10.52,1.88,3.82,4.64,7.27,7.46,10.45,9.05,10.2,9.81,21.99,6.84,34.8-2.05,8.82-6.08,16.13-12.53,22.23-2.45,2.31-4.6,5.65-.69,9.68,6.26-6.84,12.7-13.72,24-8.76-.9,2.63-1.27,5.57-2.73,7.64-5.39,7.59-11.36,14.72-16.69,22.35-3.65,5.22-7.17,10.71-9.66,16.59-1.36,3.2-.1,7.26,4.71,8.27,1.16-1.6,3.03-3.1,3.49-4.99,4.42-17.95,17.18-29.53,28.8-41.88,7.11-7.55,15.26-12.26,26.24-9.11,3.57,1.03,8.06-.43,11.87-1.66,3.94-1.26,7.5-3.82,11.35-5.47,10.71-4.59,14.53-3.22,19.2,8.45,2.29,5.72,4.29,10.76,11.81,11.93,1.62-1.09,3.84-2.68,6.14-4.13,9.17-5.8,20.57-3.31,27.23,5.91,4.29,5.93,2.89,17.3-3.28,24.24-2.35,2.64-5.2,4.84-8.01,6.97-5.5,4.17-8.21,9.61-8.09,16.81.06,3.57-.54,7.15-.74,9.47-7.18,7.88-13.56,14.52-19.55,21.53-8.99,10.53-20.96,13.92-33.48,15.48-9.58,1.19-19.29,1.51-28.94,1.57-6.21.04-10.9,2.52-14.07,7.7-3.64,5.94-9.46,10.71-10.27,19.02,7.09,7.59,15.32,12.84,24.72,15.69,9.61,2.91,17.14,8.97,24.47,14.66-1.07,12.36-.76,12.07,6.87,21.03,3.48,4.08,5.49,9.56,8.44,14.89,4.75.41,9.6.47,14.3,1.41,2.18.44,4.05,2.6,6.99,4.63-7.57,6.83-15.48,8.62-22.46,5.47-14.27-6.44-30.07-11.46-37.06-29.19-8.2,0-16.53-.55-24.77.11-18.39,1.49-29.28,12.28-31.65,31.51-1.78,14.49-2.93,29.09-3.9,43.67-.23,3.42.75,7.35,2.32,10.39,5.65,10.89,11.33,21.84,17.92,32.11,4.6,7.16,9.63,15.07,16.34,19.48,21.94,14.44,45.54,25.4,71.85,27.07,8.13.51,16.46-1.37,24.6-2.82,1.68-.3,2.89-3.55,5.65-7.19-12.15,0-21.81.44-31.43-.09-23.88-1.31-42.15-12.84-54.6-34.43-3.96-6.87-7.8-13.82-11.85-20.63-11.05-18.6-9.41-39.17-8.34-59.61.14-2.74,1.86-5.47,3.1-8.06,3.55-7.42,9.76-10.64,17.16-9.63,5.37.73,10.64,3.07,15.68,5.36,3.78,1.72,7.06,4.63,10.65,6.84,20.6,12.66,41.05,11.38,61.22-1.1,4.22-2.61,8.16-5.96,8.1-11.85-.07-6.13-4.18-9.72-9.04-10.49-9.71-1.52-15.13-9.53-19.89-13.51-6.62-2.81-11.26,5.61-15.39-2.71,1.46-3.37,3.14-7.25,4.69-10.82,2.83-.7,4.84-1.71,6.8-1.6,18.96,1.1,35.15-5.19,49.97-17.84,8.44-7.2,17.75-13.56,29.72-14.64,6.56-.59,13.15-4.63,19.1-8.25,11.53-7,19.44-17.33,18.07-32.03-1.37-14.76-8.49-26.03-22.41-31.56-9.29-3.69-18.84-4.61-28.66-4.28-3.98.13-8.58.51-10.26-4.97,4.08-8.37,8.66-16.42,12.06-24.99,6.35-16.03,3.56-26.09-9.62-36.23-7.21-5.54-14.85-10.45-22.24-15.61-1.41-12.59-3.72-24.03-14.46-31.21-7.88-1.82-15.79,6.29-24.11.59-4.46-4.78-2.34-10.79-2.4-16.51-.21-19.8-6.41-35.59-25.41-43.5-8.25-3.44-16-8.21-25.14-12.99,0-4.9.32-9.89-.06-14.83-1.11-14.19-3.48-27.07-18.86-33.06-13.26-5.16-23.47-14.91-30.41-28.52-4.11-8.04-8.47-8.39-15.38-3.75-12.27,8.25-24.64,16.35-36.83,24.73-12.74,8.77-18.7,21-16.48,37.24.47,3.43.45,6.93.62,9.86-7.17,6.56-15.01,5.78-22.48,6.89-19.14,2.82-30.57,18.09-29.06,38.21.53,7.11,3.41,14.29-.57,21.94-4.05,2.04-8.23,4.75-12.76,6.32-13.3,4.6-19.64,16.06-18.21,28.57,1.62,14.21-4.72,23.84-10.41,34.4-9.2,17.07-9.41,16.94-11.2,32.64-3.61.93-7.82,1.38-11.46,3.13-4.31,2.07-8.83,4.57-12.01,8.11-6.51,7.26-13.75,11.33-23.37,12.69-17.54,2.48-21.28,12.4-20.7,29.43.15,4.28,1.65,8.53,2.67,12.76,2.79,11.52,8.79,19.17,20.75,21.3,11.22,2,18.3,10.18,22.08,21.03,5.19,14.9,16.38,21.04,29.88,24.11,5.42,1.24,11,1.68,16.45,2.78,7.15,1.44,12.29-.86,14.94-8.23,1.39-3.88,2.63-7.82,4.42-13.2-20.07-.75-37.67-3.7-47.11-23.64,2.2-5.04,4.47-10.23,6.44-14.71-2.16-5.16-9.17-7.45-4.33-13.72-.11.11-.24.21-.35.31,2.01-4,5.18-7.52,9.24-5.76,2.92,1.27,4.44,6.14,6.92,9.92,12.27-6.52,22.03-4.76,29.44,9.07,6.23,11.63,17.05,16.53,29.69,17.06,4.81.2,9.74.51,14.35,1.81,3.14.89,5.95,3.42,8.63,5.6.75.61.91,2.72.58,3.91-.33,1.19-1.49,2.79-2.5,2.98-2.66.49-5.44.51-8.16.38-18.15-.84-32.68,5.02-40.52,23.73-1.11,2.65-3.25,4.87-4.16,7.57-3.77,11.25-11.84,17.53-21.71,22.17-4.16,1.96-7.94,4.82-11.92,7.29,1.77,9.2,6.12,14.27,12.84,17.54,19.57,9.54,38.9,8.48,58.03-1.32,8.09-4.14,15.95-8.85,24.8-9.4,7.44,4.97,14.35,9.68,21.35,14.23,4.47,2.91,6.56,7.16,7.62,12.45,3.98,19.74-.33,37.46-10.43,54.32-9.19,15.32-21,27.01-37.02,33.88-17.38,7.45-34.23,13.54-54.15,8.69-16.97-4.14-30.82-12.67-44.43-22.79-15.36-11.42-17.28-20.11-8.47-36.79.67-1.27,1.71-2.34,2.32-3.64,9.61-20.37,4.8-25.7-7.92-38.03-3.31-3.2-8.66-4.3-13.25-5.73-3.86-1.2-7.97-1.49-13.31-2.42,2.32-12.02-2.02-21.87-5.43-32.03-4.69-14-15.61-18.08-27.8-19.02-12.85-.99-25.49,7.71-29.92,19.65-4.64,12.51-6.36,25.3.26,37.86-5.84,5.58-11.2,10.15-15.93,15.35-6.41,7.04-11.19,15.18-9.52,25.52.36,2.23,2.6,4.13,4.15,6.16,2.21-7.32,3.65-15.09,7.1-21.7,5.19-9.96,15.25-12.76,25.09-12.42Zm458.09-165.01c6.85,2.85,12.19,4.95,15.47,12.48-4.85,3.8-8.68,9.15-18.21,4.43.9-5.55,1.67-10.31,2.74-16.91Zm-9.63-1.15c-.23.51-.45,1.02-.68,1.52-.27-.7-.53-1.4-.8-2.1.49.19.99.39,1.48.58Zm-63.64,77.7c-4.16,3.35-8.46,3.72-13.52,1.16-6.61-3.34-5.98-8.6-4.95-14.32-9.82-2.08-19.63-4.15-29.43-6.23-2.21-3.99-.76-6.91,2.56-9.07,2.75-1.78,5.41-1.19,7.05,1.68,1.92,3.36,3.98,5.91,8.56,4.49,1.31-3.6,2.71-7.46,4.24-11.67,10.7,0,21.01,0,32.01,0,4.21,5.14,8.57,10.45,13.89,16.94-6.86,5.74-13.55,11.5-20.4,17.01Zm53.98-43.84c-1.3,9.23-7.37,15.54-15.6,18.66-7.7,2.92-12.84-2.55-17.54-6.63-2.37-11.89,3.1-19.32,10.44-25.21,6.7-5.38,12.9-13.1,22.91-10.71,0,8.58.84,16.39-.22,23.9Zm-5.63-45.78c1.16.53,2.33,1.06,3.49,1.6-.5,1.22-.76,3.14-1.56,3.44-.88.33-2.27-.85-3.43-1.37.5-1.22,1-2.45,1.5-3.67Zm-124.64-78.92c-.93-.19-2.19-1.95-2.22-3.03-.17-5.72,3.7-10.73,9.4-11.72,1.41-.25,3.16,1.68,4.44,2.42.31,6.66-6.33,13.42-11.62,12.32Zm37.79-56.75c1.01,1.39.02,5.34-1.2,7.44-4.86,8.35-14.1,8.32-21.62,11.51-2.18,5.27-4.29,10.37-6.47,15.62-12.3-7.9-13.99-13.93-6.66-21.95,2.21-2.42,5.08-4.16,7.74-6.14,0,.02-.02.05-.03.07,7-3.07,13.88-6.5,21.07-8.98,2.05-.7,5.88.65,7.18,2.43Zm-13.23-28.58c1.21.51,2.59,3.78,2.1,4.97-2.49,6.13-7.41,5.02-12.19,3.69-.48-.13-.94-.34-1.4-.52.11-.59.18-1.2.44-1.71,2.35-4.7,5.21-8.9,11.06-6.43Zm-59.15-79.19c7.67,2.54,13.51,7.72,18.25,13.8,2.9,3.73,6.32,9.51,5.5,13.46-2.2,10.64,2.69,19.9,3.4,30-5.14,6.74-10.2,13.37-15.26,20-7.28-6.32-7.66-11.4-1.51-16.81q8.62-7.59,6.83-19.15c-5.15-.86-10.54-1.69-15.91-2.66-5.27-.95-9.24-4.3-10.13-9.6-1.82-10.9-1.73-21.61,8.83-29.03Zm-130.57,140.6c2.86-9.23,14.65-15.5,25.78-13.35,3.37.65,6.51,2.55,9.87,3.39,2.63.66,5.43.57,8.86.88,4.48-8.57,8.01-15.32,11.91-22.77-4.86-3.21-9.54-6.17-14.09-9.33-15.18-10.53-10.62-29.52,3.85-36.79,5.45-2.74,12.03-3.31,18.18-4.04,6.13-.73,10.69,2.15,12.8,8.71.52,1.6,1.91,2.89,4.14,6.1-1.3-25.42,3.3-47.22,12.99-67.85,1.65-3.5,4.47-6.03,8.27-4.94,2.43.69,4.62,2.81,6.55,4.7.84.83,1.35,2.95.96,4.09-4.78,13.89.54,28.83-4.78,43.02-2.91,7.76-1.1,17.36-2.26,26.01-1.35,10.08-5.35,17.73-16.74,18.94-10.75,1.14-17.74,9.2-21.01,19.05-3.13,9.41-6.17,18.99-5.57,29.77,1.01,18.07-17.04,32.96-33.43,28.62-5.32-1.41-10.6-3.64-15.38-6.47-10.63-6.3-14.37-16.5-10.88-27.74Zm-45.9,141.79c-3.51,9.42-11.22,10.57-18.73,10.76-7.97.2-14.77-3.78-19.29-11.06-4.86-7.82-5.92-16.62-3.38-25.24,1.06-3.59,4.87-6.8,8.16-8.99,3.44-2.29,7.65-3.5,11.68-4.54,4.66-1.21,9.49-1.71,14.98-2.64,9.06,9.93,14.18,21.09,13,35-2.36,2.15-5.4,4.01-6.41,6.72Zm65.54,98.97c-1.95-.99-3.1-1.57-4.25-2.15,1.23-1.38,2.3-3.06,3.79-3.97.55-.34,2.1,1.14,3.19,1.79-.93,1.48-1.86,2.95-2.72,4.32Zm-171.23-2.62c2.39-7.95,7.59-14.12,15.35-16.36,5.57-1.61,12.74-.04,14.42,5.64,3.87,13.05,14.4,21.05,19.84,32.65,1.12,2.4,1.57,5.15,2.89,9.64-4.78,0-8.89,1.36-10.98-.23-10.29-7.83-24.6-2.47-34.28-12.46-5.32-5.49-9.64-10.89-7.23-18.88Z"/><path class="cls-1" d="m993.94,470.1c-.03.15-.05.29-.07.44.2.04.4.08.6.13l-.52-.56Z"/><path class="cls-1" d="m595.65,606.66c-.09-.13-.21-.26-.31-.38-.09.29-.16.6-.25.89.08,0,.15.01.23.02.11-.17.2-.34.31-.5l.02-.02Z"/><path class="cls-1" d="m811,510.3c-.12.21-.24.43-.36.65.27-.05.54-.09.8-.14l-.45-.51Z"/><path class="cls-1" d="m370.55,525.82c8.18,5.96,16.97,9.08,27.81,3.29.49,5.33,1.54,8.96,1,12.31-1.81,11.26,2.7,19.8,9.54,27.61,1.88,2.15,3.49,4.55,5.39,6.67,10.31,11.49,13.11,11.7,27.97,2.26.06-4.13.33-4.96,4.24-11.96,4.88,8.32,10.4,15.49,18.73,19.3,4.04,5.32,4.48,5.51,17.03,10.43.63-12.21,1.66-24.42,1.76-36.63.1-12.1-.73-24.21-1.16-36.5,4.55-.65,7.69-1.11,11.3-1.62-4.03-15.18-14.52-25.78-22.75-37.36,1.8-2.91,2.54-5.25,4.09-6.45,10.21-7.91,21.96-12.51,34.15-15.31,5.13-1.18,11.34-.68,16.22,1.31,8.16,3.34,16.25,3.15,24.5,2.48,2.18-.18,5.88-.82,3.72-5.45-17.61,8.12-31.88-3.05-48.21-9.75-8.32,3.28-17.32,6.93-26.4,10.35-2.53.95-5.27,1.4-7.95,1.73-2.55.32-5.71-3.47-4.68-5.79,3.18-7.13,6.69-14.09,9.97-20.91-5.42-9.85-8.37-20.88-.97-28.86,6.68-7.2,9.32-15.98,14.05-23.85.45-.75-.3-2.3-.5-3.52-3.72.61-7.19,5.52-11.98-.21,1.76-16.3-5.09-31.09-11.57-47.47-6.54,7-.85,18.03-11.64,22.22-7.22-7.44-14.81-15.48-20.92-25.67,1.65-4.36,2.63-8.7,4.76-12.28,6.48-10.88,11.35-10.51,19.77.86.68.92,2.21,1.15,3.38,1.72,4.26-1.58,7.72-6.59,13.21-3.1,5.03,3.2,8.64,7.35,9.35,13.66.24,2.15-.42,4.42-.08,6.53.93,5.64,2.06,11.26,3.39,16.81.29,1.19,1.75,2.08,3.06,3.53,4.26-1.28,8.79-2.63,14.07-4.21,4.62,4.53,9.27,8.82,13.62,13.42,3.86,4.08,4.56,9.05,1.73,14.02-4.21,7.39-7.19,15.55-15.19,20.26-4.92,2.89-5.04,7.76-2.19,11.07,3.41,3.96,8,3.65,12.51-1.11,2.94-3.1,5.51-6.58,8.43-9.69,4.81-5.12,10.52-6.43,17.19-4.65,10.56,2.81,14.1,9.03,9.74,19.21-2.72,6.34-6.52,12.17-10.6,19.63,7.56,0,13.6-.34,19.59.08,8.16.58,9.48,9.26,13.21,14.19,2.26-.29,3.62-.57,5-.62,14.16-.56,21.64,8.92,16.2,21.47-2.49,5.76-6.49,11.22-10.93,15.53-9.34,9.08-20.68,10.91-33.04,8.04-7.42-1.72-15.01-3.15-22.58-3.59-7.55-.44-15.18.52-22.77.86q20.47,5.6,28.59,24.9c1.12,2.67,2.2,5.37,3.18,8.1,6.83,19.14.42,29.54-19.03,30.77-2.03.13-4.11-.68-6.18-.77-3.26-.14-6.53-.04-9.98-.04-.81,2.86-2.22,5.08-1.83,6.84,4.96,21.9,4.4,44.8,10.88,66.4,1.44,4.82,2.64,9.95,5.14,14.14,8.11,13.55,15.72,27.93,32.51,31.73,10.12,10.49,22.57,8.94,35.21,8.22,10.03-.57,18.96-4.23,27.9-8.15,18.85-8.27,27.09-25.15,33.6-45.19-7.28-2.4-13.06-2.41-18.88-.37-3.13,3.07-6.47,2.3-8.39-.92-3.42-5.75-6.06-12.01-8.87-17.73-4.89-.33-8.78-.6-12.65-.86-3.54,5.29-3.62,11.03.51,15.55,5.2,5.69,10.95,11.27,17.41,15.16,13.31,8.01,8.88,18.98-.24,25.77-2.76,2.06-6.09,3.91-9.36,4.44-9.57,1.55-19.22,2.71-28.88,3.4-11.95.86-21.96-4.54-29.32-13.83-5.69-7.18-10.91-15.38-14.06-24.04-4.44-12.2-7.11-25.16-9.88-37.95-1.68-7.76-2.22-15.84,2.54-23.16,5.67-1.28,11.04-2.4,16.37-3.7,10.43-2.55,14.34-10.81,15.43-20.82.46-4.24-.69-8.67-1.13-13.01-.45-4.34-1.27-8.68-1.32-13.03-.07-5.79,3.17-9.71,8.46-10.7,2.71-.51,5.53-.75,8.28-.67,10.76.33,17.68-5.28,24.07-14.16,15.43-21.45,13.98-43.41-6.77-58.59-10.6-7.76-16.99-16.59-18.13-29.93-.25-2.87-1.32-5.66-1.96-8.5-2.41-10.84-8.63-17.99-18.6-21.71-3.72-1.39-7.27-3.26-11.35-5.12.97-5.46,1.86-9.65,2.44-13.89,1.76-12.86-.23-17.34-10.57-23.27-4.25-2.44-8.77-4.38-13.13-6.61-10.93-5.58-18.75-13.51-23.55-26.04-4.34-11.33-11.44-21.66-18.3-31.7-4.88-7.14-13.37-7.03-17.3.59-5.82,11.29-15.47,18.61-23,28.06-7.1,8.89-14.99,16.9-18.04,28.88-1.35,5.31-5.44,10.17-9.13,14.41-6.98,8.01-9.33,17.77-10.79,27.92-.97,6.74-.08,13.03,5.75,17.63,4.38,3.46,9.53,7.49,6.63,14.13-2.41,5.54-8.17,3.84-12.97,4.22-16.53,1.29-27.73,14.33-26.52,31.62.73,10.4-1.51,18.64-9.81,24.75-2.25,1.66-4.55,3.61-6.03,5.99-5.47,8.84-8.8,18.83-5.42,28.98,4.02,12.05,13.1,20.41,22.92,27.57Zm100.06,50.92c.46-.55,4.12.6,4.8,1.87.7,1.29-.12,5.17-.85,5.35-2.84.7-5.86.64-8.84.74,1.54-2.74,2.94-5.61,4.89-7.96Zm-93.5-141.97c1.46-2.39,3.4-4.49,4.59-7,5.73-12.09,5.88-12.65,16.41-11.11,8.76,1.28,17.38,3.7,27.42,5.91,5.88-7.66,14.31-13.46,26.7-13.56-1.32-4.93-1.41-8.75-3.19-11.2-4.04-5.56-8.91-10.45-13.64-15.83-4.54,6.53,5.12,16.53-7.47,18.98-3.28-2.7-7.24-5.57-10.78-8.93-11.01-10.41-12.21-22.36-3.31-34.73,2.64-3.66,7.16-6.14,11.03-3.62,9.65,6.3,20.31,8.84,31.07,11.6,3.18.82,6.11,3.34,8.8,5.55,3.45,2.84,5.52,6.8,4.36,11.52-4.36,17.6-8.49,35.28-13.58,52.65-3.01,10.28-5.67,10.59-17.04,4.9.03.19.09.39.13.58-6.6-6.71-7.01-6.85-10.61-.53-9.48-1.25-18.95-2.49-26.82-3.53-5.81,2.99-4.18,7.12-5.05,10.4-1.71,6.43-9.59,9.46-14.99,6.24-6.06-3.62-7.92-11.92-4.02-18.29Zm62.25,11.1c-1.36,4.75-6.35,5.79-8.95,1.85-1.28-1.94-1.6-4.59-2.22-7.02,3.48-.05,6.95-.1,10.43-.16.41,1.83,1.18,3.77.74,5.33Zm-69.64,25.3c5.99-.09,12.1,1.91,18.01,3.56,10.89,3.03,14.75,1.75,20.85-8.25,1.48-2.42,2.13-5.39,3.51-7.89,2.94-5.33,6.87-6.89,12.15-4.93,1.94.72,4.03,1.52,5.55,2.9,5.93,5.41,12.93,2.99,20.68,2.84,2.12,5.18,5.36,10.19,6.12,15.59,1.29,9.21,1.46,18.44,4.26,27.58,2.81,9.17-4.95,16.02-6.64,24.15-11.3,4.61-24.04,3.69-32.86,14.43,9,4.98,18.71-11.21,27.16,2.74-3.85,3.75-8.57,6.97-11.41,11.49-2.86,4.55-3.85,10.41-5.63,15.6-25.74-4.16-31.73-21.02-16.76-48.69-2.39-4.32-5.08-9.18-7.74-13.98q6.98-10.94,15.65-8.34c5.97,1.77,11.96,3.51,17.96,5.19.58.16,1.29-.23,4.66-.94-30.22-16.53-21.97-19.02-57.18-9.24,3.24,1.58,6.15,3,10.57,5.15-2.4,2.33-4.39,5.66-5.82,5.41-7.86-1.36-14.86.99-20.92,4.61-6.55-3.03-9.5-7.25-9.49-13.92,0-3.37-.77-6.81-1.62-10.1-2.25-8.72.78-14.84,8.94-14.96Z"/><path class="cls-1" d="m624.74,626.83c.16-.06.33-.08.49-.14,0,0,0,0,.01-.01l-.5.15Z"/><path class="cls-1" d="m1096.69,552.02c-.24,3.48-.8,6.93-1.3,11.1-11.25,1.08-20.84,4.38-29.65,10.62-17.43,12.34-21.74,38.27-8.48,55.37,3.05,3.93,7.48,6.74,10.23,10.84,3,4.49,4.79,9.88,7.76,16.28,13.91-8.13,25.13-17.16,34.12-29.45-2.1-3.5-3.85-6.44-5.83-9.74,2.4-3.49,5.25-6.68,6.99-10.43,1.73-3.72,2.34-8.01,3.07-10.71,8.03-2.94,14.36-5.67,20.92-7.53,6.63-1.88,13.43-3.67,20.24-4.09,8.04-.49,16.15,9.39,8.67,18.1-3.7,4.31-6.61,9.38-9.64,14.28-.54.87.12,2.57.32,4.96,2.67-.91,5.07-2.01,7.58-2.5,2.4-.47,4.91-.31,8.47-.49-.81,11.09-8.13,14.03-12.45,17.84-13.24-.21-22.92-4.55-30.63-13.81-2.08-2.49-5.25-3.98-9.53-7.1-1.37,10.28-.26,19-8.08,25.23-4.55,3.63-2.96,10.01,1.36,15.76,5.57,7.42,10.81,15.19,17.01,22,7.66,8.4,15.1,17.96,24.53,23.4,12.67,7.3,27.08,11.34,42.19,9.17,18.62-2.68,37.23-5.27,51.49-20.21,19.86-7.94,28.97-26.25,38.15-44.3,4.95-9.73,8.42-20.06,5.48-30.86,11.59-9.71,14.07-12.71,13.28-21.28-.97-10.46-3.23-20.79-4.87-30.8-6.3-.46-8.69,2.42-10.64,6.87-1.65,3.76-3.74,8.81-6.83,10.09-8.52,3.51-18.3,5.04-25.3-2.65-4.21-4.61-8.78-6.47-13.92-8.55-8.61-3.47-16.32-8.44-19.7-18.16-.78-2.25-.11-5.07-.11-11.11,10.13,14.62,21.45,17.59,34.71,14.69,3.26-.71,6.82-.73,10.13-.22,12.52,1.91,22.25-4.26,33.42-10.89-9.53-4.22-16.5,1.14-23.93,1.77-8.28.7-16.76.94-24.71,3.16-12.49,3.48-16.05-.9-21.1-11.45-3.07-6.42-3.53-12.36.91-18.41,1.97-2.68,3.21-5.95,4.75-8.98-1.74-.79-3.45-1.81-5.27-2.13-16.53-2.95-28.12-11.39-31.66-29.79-1.31-6.84-8.36-12.08-4.68-22.19,8.25-3.74,17.68-8.02,28.26-12.82,8.35-11.18,17.61-23.58,26.99-36.15,13.11,3.96,20.19,15.82,31.74,22.71,1.48-3.97,2.67-6.44,3.26-9.06.28-1.25-.16-3.23-1.01-4.09-1.35-1.37-3.39-3.07-4.98-2.91-6.95.7-11.84-3.62-17.11-7.01-4.73-3.05-9.13-6.69-13.95-9.57-6.6-3.96-12.07-3.15-16.69,2.81-3.03,3.9-6.95,8.4-7.37,12.95-1.65,17.79-12.28,24.71-27.1,27.62-1.35.26-2.74.67-3.96,1.32-20.68,11.14-23.07,22.04-14.31,40.43,6.28,13.19,14.57,24.64,27.55,31.87,6.7,3.73,7.21,7.01,5.4,14.6-.33,1.4-1.26,2.64-1.6,4.04-5.76,24.23,1.35,36.42,24.97,42.88,1.98.54,3.97,1.02,6.94,1.78,3.79,16.34,15.57,24.45,30.09,29.32.66.22,1.32.45,1.98.67,5.54,1.85,7.52,6.29,7.12,11.88-.94,13.18-2.52,26.22-10.19,37.42-8.91,13.01-16.99,27.07-31.37,34.21-8.75,4.34-18.04,7.73-27.39,10.43-21.56,6.23-40.95-.54-59-12.76-6.26-4.23-12.04-9.24-18.01-13.88-1.35-5.69-2.93-11.3-3.92-17.03-.55-3.15-.1-6.49-.1-10.84,4.29,1.06,7.09,1.3,9.52,2.43,12.6,5.91,25.89,4.85,38.94,3.65,5.09-.47,10.98-3.23,14.63-6.98,9.02-9.26,10.23-25.13,3.15-36.34-6.12-9.7-12.65-19.26-20.1-27.83-5.62-6.46-7.97-12.94-7.77-21.61.19-7.91-.96-15.99-2.63-23.74-.85-3.94-3.36-8.47-6.45-10.69-8.61-6.22-18.07-11.35-28.87-11.21-4.64.06-10.29.87-13.68,3.71-10.39,8.72-19.42,18.89-20.46,34.11Zm-10.57,60.67c-6.79,3.14-14.45,4.16-21.17,5.95-9.65-6.15-8.47-15.06-7.16-23.83,1.19-7.95,6.19-12.62,12.92-15.85,8.42-4.04,16.91-6.23,27.32-3.12,2.08,8.98,3.83,16.54,5.76,24.84-5.31,3.71-11.04,8.94-17.67,12Zm56.9-58.09c1.13-1.8,3.39-2.82,5.18-4.17.46,1.21,1.56,2.67,1.25,3.58-.75,2.2-2.17,4.15-4.61,8.5-1.15-4.6-2.44-6.92-1.82-7.91Zm-12.28-33.67c1.39,2.12,4.08,4.33,4.04,6.49-.13,8.7-1.13,17.37-5.66,25.08-4.07,6.93-10.09,9.25-17.78,6.69-6.8-2.26-9.97-8.73-6.98-15.34,3.88-8.56,8.18-16.99,17.36-20.63,2.54-1.01,5.32-1.38,9.02-2.3Z"/><path class="cls-1" d="m1235.87,509.59c-.04.08-.08.16-.12.24.18.08.35.17.53.24l-.41-.49Z"/><path class="cls-1" d="m954.51,781.63c-3.28-9.59-7.36-18.88-11.26-28.22-10.83-25.98-31.42-35.49-56.69-36.66-2.77-.13-5.62,1.55-11.13,3.2,9.11,1.81,15.07,2.93,21,4.18,9.2,1.94,14.43,8.3,16.69,17.48.83,3.36,1.6,7.38-6.04,9.38-1.12-1.75-2.47-5.46-5.02-7.59-9.73-8.16-16.73-5.31-18.96,7.29-4.84,27.34-7.02,31.2-27.76,48.75.01,9.11,4.15,16.24,9.92,21.88,10.66,2.5,19.98,2.23,27.89-5.47,7.14,1.01,9.43-4.31,11.98-9.76,6.02-12.85,8.02-26.25,6.28-40.44-.19-1.54,1.57-4.36,2.95-4.8,1.42-.46,4.64.79,5.09,2.07,5.14,14.53,8.93,29.12,1.43,44.3-4.66,9.44-7.47,19.63-7.88,29.88-6.28.43-11.73.61-17.14,1.22-14.29,1.6-27.3-.54-37.1-13.04-1.31-1.68-2.96-3.08-4.53-4.51-13.98-12.69-18.23-29.06-15.21-47.52,1.52-9.27,4.74-18.24,7.26-27.33.92-3.32,2.99-6.69-.73-9.4-.86,0-1.94-.3-2.19.04-10.68,15.17-16.14,31.78-13.94,51.03,3.37,29.42,12.25,56.88,24.75,83.27,3.93,8.3,10.09,13.03,18.22,11.34,10.4-2.15,20.53-.97,30.82-.93,4.56.02,9.13-2.19,13.78-3.41,4.47,1.03,5.75,8.92,12.77,6.14,1.57-3.13,3.4-6.79,6.28-12.52,2.85,6.87,4.47,10.76,6.87,16.55,2.06-3.9,4.79-6.75,4.25-8.44-4.13-12.98.55-24.27,4.94-35.86,7.7-20.34,9.57-41.15,2.4-62.09Z"/><path class="cls-1" d="m1415.24,454.52c-.01.27.02.51,0,.79-.02.03.17-.24.29-.41-.13.18-.32.46-.32.46.17.02.31.07.48.1-.03-.24,0-.45-.06-.7-.13-.08-.26-.15-.39-.23Z"/><path class="cls-1" d="m1403.73,440.21c-5.63-1.37-11.33-2.47-17.76-3.85,2.18-12.65,14.48-14.85,18.05-25.48-1.9-10.53-.44-23.85-13.99-29.74,0,0,.09-.12.08-.12-6.27-5.75-5.65-12.71-3.23-20.03,5.4-16.36,2.52-31.52-5.29-46.36-2.93-5.57-4.18-12.14-6.07-18.3-.85-2.77-1.09-5.77-2.13-8.43-3.82-9.77-14.39-12.33-19.68-3.84-6.78,10.91-15.72,17.67-26.44,23.66-9.56,5.35-14.45,15.37-13.92,27.46.15,3.42.02,6.85.02,9.74-2.09,1.25-3.53,2.83-4.41,2.54-14.93-5.01-25.31,4.52-35.63,12.87-3.44,2.79-6.16,8.2-6.81,12.8-.95,6.66-.09,13.82,7.11,19.85,1.53-5.18,2.17-8.75,3.62-11.92,2.35-5.14,4.55-10.66,8.08-14.83,3.58-4.24,8.98-1.95,13.82-1.53,3.26.28,6.66-1.29,10.09-2.05,3.53,9.16,10.4,14.44,18.72,18.18,3.18-4.75,1.16-8.64-1.36-10.33-8.06-5.41-8.72-12.12-4.87-20.35-4.05-7.54,3.7-11.74,4.42-17.44,1.12-8.81,6.47-12.28,12.35-16.19,2.9-1.93,5.56-4.24,8.28-6.34,3.54,1.33,7.09,1.99,9.87,3.89,2.7,1.85,5.71,4.6,6.68,7.63,4.72,14.85,4.07,29.23-7.85,40.24-4.95,4.57-8.44,9.53-10.65,15.77-1.75,4.94-4.01,9.15-9.1,11.28-1.06.44-1.99,4.14-1.36,5.53,1.49,3.32,4.01,2.19,6.78.84,8.79-4.26,11.05-3.01,11.63,6.17.21,3.36-2.04,7.21,3.42,10.09,3.82-3,7.98-6.59,12.45-9.67,3.51-2.42,8.78.3,9.81,4.8.48,2.09,1.22,4.46.74,6.4-5.21,20.91-12.42,40.16-36.88,45.01,0-6.22,0-12.27,0-18.57-11.63,3.78-17.02,12.98-22.38,22.25,1.87,3.62,3.7,7.15,6.64,12.84-7.07.34-12.22.58-17.28.82,2.5,4.93,5.09,9.8,7.36,14.84.45,1-.42,2.67-.97,5.57-4.9.29-10.17.6-17.34,1.03,9.33,8.8,23.08,10.14,23.85,25.99-2.68,3.63-5.94,8.05-9.42,12.78,2.1,3.43,3.91,6.39,6.35,10.37,8.84-7.67,14.86-16.31,19.16-26.2,1.32-3.04,2.23-7.66.97-10.32-4.8-10.16-1.26-19.66-.51-27.85,10.72-8.55,20.31-15.52,29.15-23.4,15.15-13.5,30.75-14.17,47.31-3.76.42-8.39-4.23-12.54-11.51-14.31Z"/><path class="cls-1" d="m1308.55,475.52c.25-.01.52-.02.77-.04-.08-.15-.15-.3-.23-.45l-.54.49Z"/><path class="cls-1" d="m1124.63,758.48c-2.56-9.23-4.86-17.52-6.78-24.43-9.79-3.97-17.96-7.28-26.59-10.78-4.92,1.48-10.19,4.25-15.53,4.39-8.03.21-8.92,8.41-13.96,11.48-2.58,1.57-6.18,1.26-9.92,1.91,2.17,19.78-6.64,38.14-1.25,57.56,4.16,0,8.12,0,11.99,0q4.81,13.09-12.74,23.5c-.62,8.74-1.71,18.12-1.82,27.5-.08,6.47,1.19,12.96,1.75,18.37,6.19,7.34,13.22,10.11,20.79,11.94,4.03.97,8.09,2.09,11.83,3.87,1.27.61,2.53,3.85,2.05,5.19-.52,1.43-3.09,2.83-4.77,2.83-2.62,0-5.23-1.41-7.9-1.68-.7-.07-2.32,1.91-2.21,2.77.14,1.11,1.54,2.86,2.47,2.92,9.58.63,19.17,1.04,28.77,1.28,1.11.03,2.25-1.36,3.49-2.17-.31-3.32-.62-6.7-1.06-11.46,4.58-1.1,9.15-3.21,13.61-2.98,4.46.24,9.65,6.04,13.23.78,4.79-7.04-6.79-7.76-6.36-14.54,3.06-3.61,6.52-7.68,10.48-12.34-4.13-4.27-7.35-7.61-12.56-12.99,9.29-1.6,15.07-8.85,23.05-5.49,9.69,4.09,20.51-1.55,29.84,4.69,1.36.91,4.21.19,5.98-.67,1.58-.76,3.53-2.68,3.65-4.22.14-1.76-1.15-4.35-2.59-5.37-2.15-1.51-4.97-2.7-7.52-2.72-10.32-.08-20.67.88-30.96.44-15.69-.67-31.61-1.13-45.87-11.74,4.8-7.62,11.11-8.97,18.24-7.44,6.49,1.39,12.79,4.92,21.3,1.12-3.86-3.92-6.95-7.05-10.71-10.87,4.63-3.65,8.34-6.56,11.92-9.38q-5.06-11.86-.1-23.14c-4.56-2.8-9.18-5.65-13.23-8.14Zm-29.17,90.83c-1.82,14.31-6.83,19.14-21.83,19.16-1.44-.28-5.13-.22-8.04-1.78-2.79-1.49-5.95-4.24-6.9-7.17-4.35-13.48,2.82-28.66,14.77-33.93,6.52-2.87,12.02-1.15,17.55,2.19,3.93,2.37,5.73,6.23,5.68,10.8-.04,3.58-.77,7.16-1.22,10.73Zm-7.42-53.26c-2.03-.14-4.66-.14-5.95-1.41-9.39-9.25-20.98-16.85-21.36-32.85-.21-8.99,2.19-15.38,10.59-19.03,6.2-2.69,11.97-6.47,18.74-10.21,6.41,7.28,13.25,15.31,17.83,25.24.9,1.95,2.4,3.63,3.11,5.63,6.81,19.22-3.59,33.98-22.96,32.63Z"/><path class="cls-1" d="m529.82,732.05c-23.77-10.7-48.54.35-58.17,25.62-8.73,22.91-12.27,46.31-1.8,70.03,2.62,5.93,4.23,12.34,6.33,18.52,8.67,25.5,25.64,38.03,51.48,39.17,14.27.63,27.15-5.26,40.71-7.9,1.28-.25,2.71-1.14,3.53-2.2,10.69-13.85,25.89-25.46,22.72-47.19-1.57-10-1.75-20.53-4.95-29.91-10.61-31.09-31.12-53.2-59.84-66.13Zm26.93,95.17c.97,11.4-4.17,19.62-12.32,25.96-4.97,3.87-10.32,7.44-15.96,10.04-17.54,8.1-33.4,2.57-41.92-15.49-5.79-12.29-11.3-25.12-14.34-38.37-5.76-25.04,0-48.05,18.4-65.5,16.01-15.19,40.23-10.7,52.23,8.1,12.04,18.86,16.73,39.61,13.84,65.14,0,1.39-.31,5.79.06,10.11Zm5.33-42.78c-.04.33-.05.67-.1.99h0c.05-.32.06-.67.1-.99Z"/><path class="cls-1" d="m363.91,890.7c6.81,2.22,13.99,4.88,21.33,6.89,14.47,3.96,28.76,3.41,42.66-2.91,5.01-2.28,7.74-6.46,7.71-11.91-.03-5-.41-10.33-2.08-14.94-5.32-14.63-12.38-27.43-28.54-32.13-7.86-2.28-7.97-5.73-3.84-17.89,4.38-1.04,9.18-1.81,13.75-3.34,13.77-4.61,18.31-18.41,9.96-31.08-4.33-6.57-8.98-13.23-14.69-18.37-5.65-5.09-12.37-9.84-19.38-12.05-16.49-5.19-31.29,5.62-32.15,23.69-.44,9.2,1.62,18.82,4.09,27.78,1.86,6.72,9.05,8.44,14.61,11.35,1.8.94,3.25,2.61,5.65,4.6,0,4.51-1.65,10.4.31,14.29,5.91,11.73,3.33,23.82,3.11,36.22,2.24.22,4.26.75,6.22.55,4.06-.42,6.91.84,7.22,5.44.3,4.36-2.48,7.02-6.05,7.62-18.31,3.03-29.33-6.66-30.15-26.33-.14-3.39.38-6.81.66-11.33-14.14,10.06-13.97,20.02-.39,43.84Zm28.06-110.26c-1.53,0-3.8-.68-5.4.13-5.13,2.56-10.21,3.75-15.83,2.13-4.85-1.39-7.28-7.33-4.69-11.99,3.84-6.91,9.93-9.79,17.13-9.7,7.3.1,12.95,4.28,17.3,10.18,3.95,5.36,6.03,11.25.95,20.52-3.8-4.53-6.39-7.62-9.45-11.27Z"/><path class="cls-1" d="m691.9,801.18c-2.77,2.06-6.15,3.2-8.98,5.2-15.16,10.68-18.94,29.69-9.09,45.68,2.26,3.67,5.4,6.8,7.29,10.64,10.13,20.56,26.24,26.54,47,22.43,8.62-1.71,14.43-6.01,15.9-14.54,1.75-10.16,1.88-20.35-3.76-29.65-2.61-4.3-5.5-8.55-7.25-13.24-2.7-7.21-7.4-11.97-13.37-16.15-5.49-3.85-12.4-6.43-14.93-13.59,3.35-6.22,7-10.04,13.73-7.43,4.81,1.86,10.2,2.42,13.63-1.79,5.47-6.72,9.34-14.63,6.92-24.05-5.46-21.3-17.66-36-38.29-41.83-6.83-1.93-13.49-1.76-17.36,5.97-1.26.26-2.75.26-3.69,1.02-17.14,13.89-15.94,44.52,2.23,55.96,2.91,1.83,6.49,2.46,9.44,4.23,3.78,2.27,4.08,8.5.55,11.12Zm18.64-65.74c7.05,4.53,12.05,9.33,8.2,19.13q-10.45-9.27-8.2-19.13Zm-20.74,40.43c-12.95-8.77-17.27-25.06-10.28-39.62,1.11-2.32,2.44-4.53,3.71-6.79,1.93.31,3.86.65,5.79.92,2.01.28,4.03.49,6.78.82,1.46,6.77,2.93,13.56,4.39,20.32-2.79,3.77-5.24,7.08-7.67,10.38,1.19,1.06,2.12,2.6,3.09,2.63,6.01.23,12.03.11,17.59.11,3.23,3.99,2.68,8.5-.12,10.1-7.31,4.17-15.21,6.6-23.28,1.13Zm8.7,57.13c-2.05,4.98-3.92,9.54-5.77,14.05,2.71,5.82,7.48,6.58,12.33,4.62,5.01-2.03,7.3-6.95,6.69-12.41-.47-4.19-1.82-8.49-3.69-12.22-2.14-4.26-5.31-7.96-8.04-11.93,5.85-5,10.08-2.64,13.23,1.6,7.13,9.62,8.91,21.26,9.37,32.99.3,7.64-11.76,16.58-20.09,14.75-10.67-2.34-19.01-8.19-23.14-19.66-3.74-10.4-3.3-19.59,5.59-29.18,4.79,6.16,9.01,11.59,13.53,17.4Z"/><path class="cls-1" d="m895.33,503.89c8.86-10.8,8.2-24.43,9.35-37.25,1.02-11.38,3.2-21.34,12.86-28.31.53-.38,1.02-.8,1.46-1.24,3.09-3.09,3.96-7.54,2.02-12.35,1.54.32,3.07.64,4.6.96,0,0,0,0,0,0,0,0,0,0,0,0-1.5-.38-3-.75-4.5-1.13-3.56,1.52-5.75-1.04-5.35-3.74.7-4.77,2.01-9.86,4.51-13.8,3.17-5,7.55-9.15,11.51-13.59.42-.06.84-.1,1.25-.17.13-.39.32-.7.46-1.07,4.81-2.04,9.85-3.68,14.24-6.47,4.58-2.92,8.56-7,12.45-10.96,1.89-1.92,3.11-4.74-1.47-7.62-7.96,8.48-20.43,12.23-25.21,25.03-.34.14-.68.27-1.02.42-.25.29-.51.57-.76.85-2.94.4-5.91.71-8.79,1.37-14.58,3.35-23.38-2.75-24.07-17.64-.55-11.64-.09-23.34-.19-35.01-.06-6.76-.11-13.59-5.35-18.52,0,17.71-1.55,35.39.34,52.65,3.36,30.69,2.92,61.05-1.08,91.53-1.23,9.37-1.87,18.85-2.24,28.3-.12,3.13-.24,7.54,4.99,7.75Z"/><path class="cls-1" d="m1264.65,447.23c-5.24,1.1-10.8,2.27-16.64,3.49,4.58,13.24,8.8,25.33,12.95,37.44,5.37,15.64,17.46,23.69,30.94,29.94,2.21,1.03,5.22.14,7.86.14-11.62-9.06-23.67-15.75-27.74-30.99,7.79-14.04,7.15-16.11-6.35-21.55-.61-.25-1.26-.68-1.62-1.23-.33-.49-.29-1.26-.45-2.08,4.72-4.3,5.83-9.17,1.06-15.18Z"/><path class="cls-1" d="m1387.68,475.82c.81-.74.75-2.55,1.05-3.71-.49-.56-.91-1.49-1.36-1.5-15.63-.31-27.48,8.04-38.05,18.91-3.31,3.4-1.86,7.13,5.79,15.47,11.52-10.27,22.1-19.64,32.56-29.17Z"/><path class="cls-1" d="m1193.4,904.67c.12,1.14,3.25,2.71,4.96,2.66,1.65-.05,4.72-2.79,4.67-2.88-4.16-7.8,1.85-13.48,3.57-20,.36-1.36.34-2.84.7-6.07-1.91-6.57-4.2-14.77-6.78-22.87-.22-.69-2.46-1.14-3.59-.89-1.15.26-2.39,1.33-3.04,2.41-.68,1.13-1.32,2.96-.91,4.02,3.23,8.32,2.66,16.13-.03,24.76-1.76,5.66-.22,12.58.46,18.86Z"/><path class="cls-1" d="m1155.4,806.62c-3.15-.45-4.57,2.25-2.97,6.6,9.64,1.04,19.69,2.21,29.77,3.1.51.04,1.05-.33,1.6-.81.55-.48,1.11-1.08,1.65-1.48h0s0,0,0,0c0-3.46.09-6.93.11-10.39,0-.02,0-.04,0-.06,0-1.74,0-3.48-.07-5.21-.06-1.73-.16-3.46-.32-5.19-.15-1.63-3.66-3.5-5.9-4.04-1.03-.25-3.77,2.36-3.87,3.81-.23,3.39.67,6.87,1.19,10.95-7.71,5.73-14.39,3.69-21.18,2.71Z"/><path class="cls-1" d="m1334.89,415.99c-6.8-5.13-13.19-9.94-19.57-14.75-1.1,1.22-2.19,2.43-3.29,3.65,9.07,9.49,4.55,24.57,14.02,35.3,6.4-7.5,9.31-14.94,8.84-24.21Z"/><path class="cls-1" d="m844.06,409.77c1.25.83,2.51,1.61,3.8,2.34,2.22,1.25,4.47,2.39,6.75,3.3,6.87,2.77,13.84,3.94,19.74,2.99,1.45-.23,3.83-3.14,3.58-4.24-.54-2.35-2.43-6.08-3.95-6.19-10.02-.67-20.09-.55-30.14-.6-.11,0-.21.06-.32.15-.32.28-.63.9-.95,1.27h0c.48.34.99.64,1.48.97Z"/><path class="cls-1" d="m986.02,395.93c1.63-1.67,4.25-4.01,1.47-5.99-13.29,6.91-26.02,13.53-38.74,20.14,14-.99,27.14-3.77,37.27-14.15Z"/><path class="cls-1" d="m800.49,376.58c7.58,21.4,11.94,25.4,26.98,26.31-4.8-3.79-9.38-6.86-13.32-10.68-4.18-4.04-7.74-8.78-13.65-15.64Z"/><path class="cls-1" d="m1305.38,424.45c-1.34-3.25-4.75-5.57-7.8-8.92-6.23,9.91-1.86,15.94,3.62,22.82,6.8-4.23,6-9.5,4.19-13.9Z"/><path class="cls-1" d="m890.64,530.4c-1.17-5.5-.85-9.76-2.63-11.25-5.14-4.33-11.12-7.55-16.77-11.2,3.25,9.71,7.6,18.16,19.4,22.45Z"/><path class="cls-1" d="m1178.38,905.55c-2.02-9.97,4.18-18.46-7.22-26.2,1.17,9.68-4.03,17.98,7.22,26.2Z"/><path class="cls-1" d="m1060.18,656.05c-5.72.4-10.19,2.9-12.58,9.83,6.99,3.78,11.85.75,16.11-4.24.6-.71.49-2.86-.1-3.74-.67-1-2.29-1.93-3.43-1.85Z"/><path class="cls-1" d="m1246.56,516.47c.07,1.89-.21,3.8-.39,6.25,2.61-.28,4.95.16,6.44-.82,6.18-4.09,6.3-10.27.48-13.26-5.74-2.95-11.41-4.34-16.53,1.14,3.07.82,6.11,1.63,9.08,2.41.35,1.56.86,2.91.9,4.27Z"/><path class="cls-1" d="m1235.89,509.61s.38.46.38.46c.1-.11.2-.18.3-.28-.23-.06-.45-.12-.68-.18Z"/><path class="cls-1" d="m958.02,867.49c5.04-1.86,3.74-6.82,4.26-10.65.33-2.4-.66-4.99-1.32-9.07-2.51,2.93-4.04,4.26-5.02,5.94-2.59,4.46-3.87,9.07.27,13.42.37.39,1.29.55,1.81.36Z"/><path class="cls-1" d="m1182.48,860.66c-1.24-5.6-3.79-7.33-7.7-7.03-3.7.29-6.89,3.61-6.46,6.67.55,3.89,5.29,6.78,9.61,5.08,2.03-.8,3.4-3.46,4.55-4.72Z"/><path class="cls-1" d="m634.12,606.81c-5.42,2.72-9.96,4.99-15.2,7.62,2.5,4.85,4.37,8.48,6.24,12.1,5.79-4.47,8.84-10.37,8.96-19.72Z"/><path class="cls-1" d="m624.84,626.79c-.1.05.4-.1.4-.1-.03-.05-.06-.11-.08-.16-.11.09-.2.18-.32.26Z"/><path class="cls-1" d="m1180.51,777.51c1.96-.54,3.44-3.02,6.55-5.98-3.61-2.08-5.97-4.53-7.48-4.04-1.83.58-3.81,3.5-4.15,5.69-.54,3.4,2.41,5.07,5.08,4.34Z"/><path class="cls-1" d="m1152.56,771.99c1.83,1.54,3.64,3.16,5.7,3.67,1.41.35,3.61-2.77,7.32-5.91-4.68-2.11-7.35-4.18-10.01-4.19-1.21,0-2.43,1.79-3.64,3.44-.41.55-.81,1.08-1.21,1.52h0c.62.46,1.23.97,1.84,1.48Z"/><path class="cls-1" d="m494.97,421.2c-4.34-1.54-6.07,1.78-7.82,4.88-.31.54-.13,1.38-.27,3.54,2.09,0,2.9.26,3.42-.04,2.74-1.57,7.02-1.74,6.04-6.86-.11-.59-.8-1.32-1.37-1.52Z"/><path class="cls-1" d="m1159.9,793.83c-.91-2.56-1.49-4.82-1.74-4.78-2.27.36-4.47,1.12-6.7,1.76.43,1.22.78,3.43,1.31,3.48,2.22.21,4.49-.23,7.13-.46Z"/><path class="cls-1" d="m1157.7,858.39c-1.73-1.95-2.78-4.14-4.16-4.4-.36-.07-.74-.02-1.14.09-1.18.36-2.48,1.38-3.7,1.94h0c.34.48.66.99.99,1.49.97,1.5,1.94,3.02,3.22,4.13.39.34,2.71-1.8,4.8-3.25Z"/><path class="cls-1" d="m1308.52,475.54s.57-.5.57-.5c-.87-.4-1.74-.8-2.63-1.22.65.67,1.3,1.29,2.07,1.72Z"/><path class="cls-1" d="m1294.69,468.38c5.19,2.4,8.67,4.01,11.77,5.44-2.46-2.56-4.72-6.13-11.77-5.44Z"/><path class="cls-1" d="m1218.58,904.92c-.36.32-.52,1.38-.29,1.84,2.54,5.17,6.65,2.67,10.33,2.24.35-.04.69-.15,1.03-.23-.51-.2-1-.43-1.51-.52-3.36-.62-4.74-7.58-9.56-3.32Z"/><path class="cls-1" d="m1229.65,908.76c.13.05.26.11.4.15,0,0,.05-.04.07-.05.11.01.23.04.34.06.03-.12.06-.24.08-.36-.3.07-.6.13-.9.21Z"/><path class="cls-1" d="m1207.17,771.12c-3.16-1.49-5.21.7-5.91,3.5-.35,1.38,1.14,3.27,1.8,4.92,2.08-1.23,4.15-2.46,6.1-3.62-.96-2.45-1.14-4.4-1.98-4.8Z"/><path class="cls-1" d="m928.82,242.56c3.88,1.39,5.92-1.21,8.1-3.42-3.22-.71-6.15-.52-8.1,3.42Z"/><path class="cls-1" d="m811.01,510.3s.44.5.44.5c.22-.26.44-.52.66-.78-.37.09-.73.19-1.1.28Z"/><path class="cls-1" d="m817.65,507.41c-.85-.26-2.07-1.02-2.48-.69-1.14.94-2.09,2.13-3.06,3.29,1.44-.36,2.88-.72,4.28-1.2.51-.18.85-.92,1.26-1.41Z"/><path class="cls-1" d="m1338.54,346.89c.1,1.29.07,2.54.23,3.76.17,1.29.53,2.57.98,3.78.06.17,1.56.06,1.61-.13.3-1.19.89-2.76.41-3.61-.47-.84-1.09-1.58-1.77-2.29-.45-.47-.9-.94-1.36-1.41h0s-.07-.07-.1-.1Z"/><path class="cls-1" d="m1338.54,346.89h0s.07.07.1.1c0-.14,0-.29,0-.43.06-.18.1-.36.15-.55,10.1-3.2,10.52-4.41,8.32-17.41-.55.18-1.06.37-1.53.59-6.89,3.23-5.11,11.1-7.07,16.91-.19.06-.35.11-.55.17h0s0,0,0,0c.19.21.39.4.58.61Z"/><path class="cls-1" d="m1238.98,487.93c.76.04,1.58-1.29,2.37-2.02-1.1-.43-2.19-.85-3.29-1.28-.48.39-.96.78-1.44,1.17.79.76,1.55,2.08,2.37,2.12Z"/><path class="cls-1" d="m1401.49,557.13c.69-.35,1.33-.81,1.98-1.24-.99.07-1.99.13-2.98.21.34.37.86,1.11,1,1.03Z"/><path class="cls-1" d="m1288.18,814.62c.11,1.22.21,2.43.32,3.65.24-.92.48-1.83.65-2.74.04-.23-.63-.6-.97-.9Z"/><path class="cls-1" d="m517.63,539.62c.58.23,1.15.46,1.73.7-.37-.73-.74-1.45-1.12-2.18-.2.49-.41.99-.62,1.48Z"/><polygon class="cls-1" points="787.14 463.9 787.15 465.49 788.74 464.65 787.14 463.9"/><path class="cls-1" d="m1149.77,900.29c.73-.59,1.46-1.18,2.19-1.77-.55-.22-1.09-.45-1.64-.67-.51.35-1.01.7-1.52,1.05h0c.32.46.64.92.97,1.38Z"/><path class="cls-1" d="m985.78,926.6c-2.26.71-4.33,2.64-6,4.55-.69.8-.33,2.82-.14,4.23,1.26,9.26.97,18.54,3.13,27.96,1.87,8.18-2.14,17.83-3.46,26.85-.21,1.42.18,2.92.08,4.36-1.04,15.18,2.01,30.49-1.56,45.63-.55,2.36,1.16,5.31,1.9,8.27,6.64,0,9.85-3.16,9.96-9.11.51-27.6.9-55.21,1.11-82.81.07-8.71-.34-17.44-1.02-26.13-.11-1.47-3.06-4.11-4.02-3.81Z"/><path class="cls-1" d="m1008.71,967.66c3.13-12.53,1.64-24.13-4.38-36.25-.28,3.56-.95,7.13-.79,10.66,1.45,31.3-.06,62.45-3.39,93.56-.3,2.79-.13,6.01.95,8.5,1.55,3.59,4.56,5.25,8.4,2.89,2.7-16.33,2.67-43.03.46-58.09-1.04-7.05-2.89-14.74-1.25-21.27Z"/><path class="cls-1" d="m965.55,995.94c.1-7.08,1.57-14.37-5-25.26-2.45,7.26-4.66,11-4.85,14.86-.86,17.37-1.29,34.77-1.48,52.16-.03,2.6,1.79,5.36,3.19,7.76.58.99,2.59,1.98,3.48,1.63,1.76-.68,3.46-2.06,4.66-3.6.76-.97,1.07-2.93.71-4.16-4.26-14.41-.9-28.93-.7-43.39Z"/><path class="cls-1" d="m1133.21,1008.3c.35,7.84.7,15.54,1.02,22.55,4.47-.33,8.48-1.41,12.14-.65,2.78.58,4.33,5.98,9.49,1.98,0-8.51,0-17.76,0-29.38q-11.97,6.87-22.64,5.5Z"/><path class="cls-1" d="m1024.78,987.97c-.86,15.8-1.57,31.62-2.2,47.43-.08,2.09.32,4.33,1.04,6.28.41,1.11,2.04,2.63,2.87,2.47,1.71-.31,4.57-1.51,4.66-2.56.68-7.89,1.1-15.85,1.04-23.78-.09-12.68.37-25.45-5.68-38.11-.59,2.75-1.57,5.48-1.72,8.25Z"/><path class="cls-1" d="m938.71,925.93c-.98-.38-4.08,1.95-4.34,3.42-1,5.57-1.22,11.3-1.74,16.96.13.01.25.03.38.04-.25,3.57-1.16,7.28-.52,10.67.44,2.33,2.78,5.49,4.72,5.89,1.57.33,5.28-2.71,5.5-4.59,1.06-9.11,1.56-18.34,1.49-27.52-.01-1.73-3.31-4.03-5.5-4.87Z"/><path class="cls-1" d="m1072.7,989.22c-10.94,15.24-.78,30.14-7.56,42.56-.51.93.47,2.77.79,4.18.16.7.37,1.4.63,2.07,1.44,3.66,3.34,6.31,8.4,3-1.51-15.72,2.36-32.13-2.27-51.8Z"/><path class="cls-1" d="m1091.18,1006.82c-.92,9.82-2.13,19.63-2.53,29.47-.08,1.94,2.76,5.24,4.69,5.65,1.49.31,5.19-2.85,5.26-4.58.43-10.37-.25-20.72-2.91-30.68-1.5.05-3.01.1-4.51.14Z"/><path class="cls-1" d="m1118.87,989.72c-5.16,13.99-5.47,33.34-3.02,44.75.11.54,2.12.63,4.16,1.17,0-13.6.04-26.98-.05-40.36-.01-1.86-.71-3.71-1.08-5.56Z"/><path class="cls-1" d="m957.94,927.61c0,11.27-.18,20.55.2,29.79.06,1.34,2.66,2.9,4.37,3.67.65.29,2.8-1.12,3.04-2.1,2.29-9.14,3.99-18.46-.09-27.45-.77-1.7-4-2.17-7.52-3.92Z"/><path class="cls-1" d="m1026.53,932.69q-2.21,17.61,3.47,32.75c2.57-14.1,4.45-23.18.14-32.17-.32-.66-2.37-.41-3.62-.58Z"/><path class="cls-1" d="m1242.04,999.21c.55,3.56,1.42,7.55,1.73,11.6.31,4.02.07,8.09.07,12.14,7.21-6.39,5.63-14.11,5.03-21.56-.25-3.13-2.51-4.86-6.83-2.19Z"/><path class="cls-1" d="m1188.21,1005.19q6.8-11.74,0-22.09c0,8.28,0,15.19,0,22.09Z"/><path class="cls-1" d="m1096.06,993.86c3.51-6.94,2.61-12.76-3.34-18.73-.3,4.85-.88,9.72-.72,14.55.04,1.3,2.36,2.51,4.06,4.17Z"/><path class="cls-1" d="m1209.63,1027.46c5.08-9.32,3.73-18.92-.79-28.52-1.29,9.37-1.2,18.74.79,28.52Z"/><path class="cls-1" d="m1051.06,960.41q1.86-17.85-4.35-25.36c-.26,8.77.84,15.84,4.35,25.36Z"/><path class="cls-1" d="m1117.3,942.14q-2.96,14.16,4.32,15.44c-.26-2.13-.23-4.18-.8-6.02-.98-3.21-2.33-6.29-3.52-9.42Z"/><path class="cls-1" d="m1137.63,952.29c1.93-5.1.6-9.86-3.91-11.32-1.14,1.32-3.3,2.88-4.15,5.01-1.96,4.91.28,10.19,3.85,9.71,1.56-.21,3.63-1.87,4.21-3.4Z"/><path class="cls-1" d="m1376.67,1009.78c.93-8.29,1.52-13.46,2.18-19.36q-7.3,3.07-2.18,19.36Z"/><path class="cls-1" d="m1097.81,942.76c-.33-1.43-2.33-2.44-3.58-3.64-.52,1.86-1.7,3.86-1.39,5.55.43,2.39,1.98,4.55,5.14,11.22,0-7.72.42-10.55-.17-13.13Z"/><path class="cls-1" d="m1410.24,1000.09c.56,1.92,1.96,3.57,3.02,5.33.96-1.42,1.93-2.84,3.34-4.92-1.73-1.47-3.08-2.61-4.42-3.76-.7,1.13-2.17,2.52-1.93,3.35Z"/><path class="cls-1" d="m1168.17,1027.53c-.4,1,1.41,2.97,2.23,4.5,1.34-1.08,2.68-2.16,3.87-3.13-.83-1.99-1.35-3.23-1.87-4.47-1.49,1-3.68,1.69-4.23,3.1Z"/><path class="cls-1" d="m1350.79,992.72c2.14,1.31,3.59,2.19,5.05,3.08.58-1.16,1.81-2.5,1.58-3.45-.37-1.53-1.7-2.8-2.63-4.18-1.14,1.3-2.28,2.59-4,4.54Z"/><path class="cls-1" d="m1173.33,1004.85c.06-.98-1.15-2.04-1.81-3.06-1.07,1.35-2.14,2.7-3.21,4.05.98.67,1.96,1.34,2.95,2.01.74-1,2-1.96,2.06-2.99Z"/><path class="cls-1" d="m1393.58,994.2c-.43.49-1.36,1.17-1.26,1.48.77,2.44,1.71,4.83,2.72,7.17.07.16,1.16-.18,1.78-.28-.45-2.46-.82-4.94-1.42-7.36-.11-.45-1.13-.65-1.82-1.02Z"/><path class="cls-1" d="m1074.76,941.74c-.94-1.42-1.99-3-3.05-4.59-.81,1.06-2.43,2.29-2.27,3.14.35,1.84,1.62,3.49,2.51,5.22.79-1.06,1.58-2.13,2.81-3.77Z"/><path class="cls-1" d="m1298.6,996.22c-.47.38-1.4,1.01-1.35,1.1.49.98,1.14,1.88,1.75,2.8.5-.38,1-.75,1.49-1.12-.63-.93-1.26-1.85-1.89-2.78Z"/><path class="cls-1" d="m1315.43,996.01c.31.84,2.04,1.1,3.14,1.61.37-1.2.75-2.39,1.12-3.59-1.02-.5-2.03-1-3.05-1.49-.46,1.18-1.53,2.61-1.22,3.47Z"/><path class="cls-1" d="m1278.85,998.82c0,1.07,1.22,2.16,1.92,3.24.69-1.11,1.91-2.22,1.9-3.32,0-1.11-1.24-2.22-1.93-3.32-.68,1.13-1.87,2.26-1.88,3.39Z"/><path class="cls-1" d="m1262.85,998.76c-.06,1.2.23,2.42.38,3.64.84-.48,1.69-.96,2.53-1.45-.49-1.12-.99-2.23-1.48-3.34-.5.38-1.41.74-1.43,1.15Z"/><path class="cls-1" d="m1318.85,974.9c.09-.49-.25-1.06-.41-1.59-.89.3-1.79.6-2.68.91.73.72,1.46,1.43,2.19,2.15.32-.48.81-.93.9-1.46Z"/><path class="cls-1" d="m1280.12,1016.05c0,1.12-.02,2.26.07,3.39,0,.04.97.01,1.49.01,0-1.13,0-2.27-.09-3.4,0-.05-.96,0-1.47,0Z"/><path class="cls-1" d="m1282,977.82c-.15-.51-.2-1.14-.51-1.49-.14-.16-.83.23-1.27.37.15.51.18,1.14.5,1.48.16.16.84-.22,1.28-.36Z"/><path class="cls-1" d="m1247.13,964.98c.64-.83,1.63-1.61,1.77-2.52.08-.53-1.21-1.29-1.85-1.91-.35.92-.89,1.96-1.08,3.06-.06.37.75.91,1.16,1.37Z"/><path class="cls-1" d="m1050.98,975.47c-.16.51-.42,1.03-.41,1.54,0,.17.7.33,1.08.49.15-.51.41-1.03.39-1.53,0-.18-.69-.33-1.06-.5Z"/><path class="cls-1" d="m1300.84,1016.87c.33-1.06.54-1.72.74-2.38-.42.12-1.18.21-1.2.38-.05.49.2,1.02.45,2.01Z"/><polygon class="cls-1" points="1228.01 1022.76 1229.24 1022.35 1228.2 1021.59 1228.01 1022.76"/><path class="cls-1" d="m1263.92,1021.44c.32-.42.63-.85.95-1.27-.21-.5-.41-1-.62-1.51-.11.92-.22,1.85-.33,2.77Z"/><path class="cls-1" d="m1370.16,806.58c.27-2.06-3.5-4.71-7.66-9.86-.86,6.8-.8,10.2-1.81,13.22-1.22,3.68-3.34,7.02-5.41,11.19,3.59,1.49,6,2.49,9.63,4,2.04-6.73,4.45-12.52,5.25-18.55Z"/><path class="cls-1" d="m1347.21,800.72c-1.27-1.42-2.54-2.84-4.31-4.82-1.59,1.8-2.78,3.15-3.97,4.49,1.4,1.23,2.73,3.28,4.23,3.44,1.24.13,2.69-1.99,4.05-3.11Z"/><path class="cls-1" d="m1343.4,837.07c-.61-1.57-1.05-3.26-1.96-4.59-.19-.28-3.06.7-3.1,1.23-.12,1.6.55,3.26.93,5,1.84-.73,2.98-1.18,4.13-1.64Z"/><path class="cls-1" d="m1378.92,815.76c.53.07,1.14-.48,1.71-.77-.05-.64-.1-1.28-.14-1.93-.91.45-1.83.91-2.74,1.36.39.47.73,1.28,1.17,1.34Z"/><path class="cls-1" d="m1342.46,820.86c0,.19,1.38.78,1.73.54.89-.61,1.55-1.58,2.35-2.45-1.31-.59-2.45-1.11-3.59-1.63-.19,1.18-.48,2.36-.49,3.55Z"/><path class="cls-1" d="m1390.16,900.47c1.69-.2,3.67-1.98,4.66-3.65,2.46-4.13,1.67-8.59-.93-12.22-3.09-4.32-7.09-6.84-13.38-2.24,1.4,5,2.6,10.45,4.57,15.58.54,1.41,3.44,2.73,5.08,2.53Z"/><path class="cls-1" d="m993.97,470.12s.5.54.5.54c.07-.16.14-.32.2-.48-.23-.02-.47-.04-.7-.06Z"/><path class="cls-1" d="m1002.98,463.54c-.54-1.58-1.88-2.86-3.37-5-1.92,4.54-3.44,8.1-4.94,11.64,2.94.26,5.89.5,9.33.78-.42-3.4-.38-5.54-1.02-7.42Z"/><path class="cls-1" d="m444.14,487.33c.09-.01.01-1.12.01-1.71-1.25-.38-2.43-.73-3.62-1.09.04,1.03.08,2.06.11,3.1,1.17-.07,2.34-.11,3.49-.3Z"/><path class="cls-1" d="m1090.93,755.37c-1.23,5.03-1.72,9.23-3.3,12.9-1.6,3.7-4.29,6.87-7.64,12,16.38,3.91,22.91,2.5,22.64-4.23-.25-6.13-1.97-12.33-3.96-18.15-.5-1.45-4.54-1.56-7.74-2.52Z"/><path class="cls-1" d="m1085.86,837.39c-4.18,7.54-7.62,11.99-5.55,18.66,6.24-1.86,9.13-5.73,8.35-12.12-.24-1.96-1.58-3.77-2.81-6.53Z"/><path class="cls-1" d="m525.94,759.25c-2.17-1.64-5.89-1.02-9.91-1.58-.36,21.69,5.12,41.84.76,59.73-5.89,8.49-16.99,2.16-20.18,12.27,3.77,5.24,7.35,10.31,11.04,15.29,4.29,5.8,10.54,6.02,17.48,6.53,2.67-2.69,5.61-5.65,8.49-8.56-1.81-3.09-3.41-5.83-5.78-9.87,9.37-1.96,13.02-7.04,13.43-15.41.28-5.7,2.95-11.36,2.76-16.97-.19-5.51-3.79-10.91-3.86-16.39-.15-11.59-6.19-18.97-14.22-25.03Z"/></g></g></svg>